<svg id="Layer_1" data-name="Layer 1" xmlns="http://www.w3.org/2000/svg" xmlns:xlink="http://www.w3.org/1999/xlink" viewBox="0 0 391.46 331.78"><defs><style>.cls-1{fill:url(#linear-gradient);}.cls-2{fill:url(#linear-gradient-2);}.cls-3{fill:url(#linear-gradient-3);}.cls-4{fill:url(#linear-gradient-4);}.cls-5{fill:url(#linear-gradient-5);}.cls-6{fill:url(#linear-gradient-6);}.cls-7{fill:url(#linear-gradient-7);}.cls-8{fill:url(#linear-gradient-8);}.cls-9{fill:url(#linear-gradient-9);}.cls-10{fill:url(#linear-gradient-10);}.cls-11{fill:url(#linear-gradient-11);}.cls-12{fill:url(#linear-gradient-12);}.cls-13{fill:url(#linear-gradient-13);}.cls-14{fill:url(#linear-gradient-14);}.cls-15{fill:url(#linear-gradient-15);}.cls-16{fill:url(#linear-gradient-16);}.cls-17{fill:url(#linear-gradient-17);}.cls-18{fill:url(#linear-gradient-18);}.cls-19{fill:url(#linear-gradient-19);}.cls-20{fill:url(#linear-gradient-20);}.cls-21{fill:url(#linear-gradient-21);}.cls-22{fill:url(#linear-gradient-22);}.cls-23{fill:url(#linear-gradient-23);}</style><linearGradient id="linear-gradient" x1="-15.5" y1="181.71" x2="342.19" y2="325.98" gradientUnits="userSpaceOnUse"><stop offset="0" stop-color="#191126"/><stop offset="0.05" stop-color="#2f1327"/><stop offset="0.15" stop-color="#511729"/><stop offset="0.25" stop-color="#6c1a2a"/><stop offset="0.35" stop-color="#7f1b2b"/><stop offset="0.45" stop-color="#8a1d2c"/><stop offset="0.56" stop-color="#8e1d2c"/><stop offset="0.81" stop-color="#db2d2e"/><stop offset="1" stop-color="#ed713f"/></linearGradient><linearGradient id="linear-gradient-2" x1="25.08" y1="81.11" x2="382.76" y2="225.38" xlink:href="#linear-gradient"/><linearGradient id="linear-gradient-3" x1="-44.52" y1="253.65" x2="313.17" y2="397.92" xlink:href="#linear-gradient"/><linearGradient id="linear-gradient-4" x1="19.53" y1="94.87" x2="377.21" y2="239.15" xlink:href="#linear-gradient"/><linearGradient id="linear-gradient-5" x1="35.63" y1="261.37" x2="35.63" y2="261.37" xlink:href="#linear-gradient"/><linearGradient id="linear-gradient-6" x1="-2.74" y1="150.08" x2="354.95" y2="294.35" xlink:href="#linear-gradient"/><linearGradient id="linear-gradient-7" x1="-16.13" y1="183.26" x2="341.56" y2="327.54" xlink:href="#linear-gradient"/><linearGradient id="linear-gradient-8" x1="40.25" y1="43.49" x2="397.94" y2="187.76" xlink:href="#linear-gradient"/><linearGradient id="linear-gradient-9" x1="56.11" y1="4.17" x2="413.8" y2="148.44" xlink:href="#linear-gradient"/><linearGradient id="linear-gradient-10" x1="-43.17" y1="250.3" x2="314.52" y2="394.57" xlink:href="#linear-gradient"/><linearGradient id="linear-gradient-11" x1="8.31" y1="122.67" x2="366" y2="266.95" xlink:href="#linear-gradient"/><linearGradient id="linear-gradient-12" x1="41.87" y1="39.48" x2="399.56" y2="183.75" xlink:href="#linear-gradient"/><linearGradient id="linear-gradient-13" x1="54" y1="9.42" x2="411.68" y2="153.69" xlink:href="#linear-gradient"/><linearGradient id="linear-gradient-14" x1="0.78" y1="141.34" x2="358.47" y2="285.62" xlink:href="#linear-gradient"/><linearGradient id="linear-gradient-15" x1="27.72" y1="74.56" x2="385.4" y2="218.84" xlink:href="#linear-gradient"/><linearGradient id="linear-gradient-16" x1="41.66" y1="40" x2="399.34" y2="184.28" xlink:href="#linear-gradient"/><linearGradient id="linear-gradient-17" x1="-37.18" y1="235.46" x2="320.5" y2="379.74" xlink:href="#linear-gradient"/><linearGradient id="linear-gradient-18" x1="-33.65" y1="226.71" x2="324.03" y2="370.99" xlink:href="#linear-gradient"/><linearGradient id="linear-gradient-19" x1="-34.69" y1="229.28" x2="323" y2="373.56" xlink:href="#linear-gradient"/><linearGradient id="linear-gradient-20" x1="-29.01" y1="215.21" x2="328.67" y2="359.49" xlink:href="#linear-gradient"/><linearGradient id="linear-gradient-21" x1="-27.93" y1="212.53" x2="329.75" y2="356.81" xlink:href="#linear-gradient"/><linearGradient id="linear-gradient-22" x1="-27.01" y1="210.24" x2="330.68" y2="354.52" xlink:href="#linear-gradient"/><linearGradient id="linear-gradient-23" x1="-22.88" y1="200.01" x2="334.8" y2="344.29" xlink:href="#linear-gradient"/></defs><path class="cls-1" d="M137.5,239.11c4.9,0,11.75,1.84,14.34,6.43,2.34,4.12-.13,8.9-4,11-4.81,2.59-10.4-.09-15.33-.92a52.68,52.68,0,0,0-11.9-.7q-4.06.24-5.79.49v18.74q0,29.1-6.91,42.91-9.12,18-32.3,18A45.8,45.8,0,0,1,43.05,322Q29,308.67,29,291.39q0-13.31,12.82-23.92,12.35-10.11,36.5-18.25l.25-.24,9.25-2.22c3.36-.83,7-1.89,11-3.21-.33-2.3-.58-27.33-.74-31.6-.17-1-.29-2-.37-3s-.12-1.89-.12-2.72q-5.68,10.36-12.83,10.36-9.61,0-15.78-9.62-5.43-8.62-5.42-22.44A112.59,112.59,0,0,1,65.61,164q2.1-11.22,6.29-26A113.7,113.7,0,0,1,76,124.65Q78.06,119.24,80,115a47.9,47.9,0,0,1,4.31-6.53,7.75,7.75,0,0,1,6.29-3.33,15.37,15.37,0,0,1,5.92,1.35,24.69,24.69,0,0,1,11,9.25,16.32,16.32,0,0,1,2.59,6.66c.71,4.54,2.66,15.75-3.68,17.49a4.31,4.31,0,0,1-3.81-.8c-1.68-1.37-2.06-3.74-2.19-5.9-.18-2.74-4.5-15-7-7.46-2.2,6.5-4.36,13-6.22,19.6q-3.7,13.57-5.55,24a114.7,114.7,0,0,0-1.85,19.85q0,7.65,1,10.6c.65,2,1.31,3,2,3a8.78,8.78,0,0,0,3.45-3.2,51.55,51.55,0,0,0,4.07-7.52A127.53,127.53,0,0,0,98,168.48c1-4,2.08-8.08,2.83-12.15.62-3.37.29-7.18,2.35-10.12,1.56-2.24,4.65-3,7.33-2.47s6.83,2.26,7.41,5.33c.46,2.38-.63,5-1,7.37-2.83,16.56-5,33.64-4.6,50.38.25,11.25.44,22.54,1.27,33.77Q130.1,239.12,137.5,239.11ZM73.25,319.75q27.75,0,27.75-43.89c0-.33-.09-1.65-.25-3.95s-.41-7.07-.74-14.3q-13,.5-20.62,3.45a92.75,92.75,0,0,0-23.57,13.81q-11.53,9.61-11.54,18.74,0,10.36,8.84,18Q62.21,319.76,73.25,319.75Z" transform="translate(-16.87 -46.71)"/><path class="cls-2" d="M370.43,183.17a67,67,0,0,0-4.76-11.34,173.19,173.19,0,0,0-9.77-16.32,104.25,104.25,0,0,1-7.39-12.38c-2.31-4.84-3.53-10.29-5.15-15.39-1-3.17-2.14-6.3-3.21-9.45-.92-2.74-1.59-5.31-3.92-7.28a9.67,9.67,0,0,0-9.16-1.91q-4.76,1.35-6.58,4.81a10.75,10.75,0,0,0-.49,8.22q2.29,8.07,3.64,15.5A75.87,75.87,0,0,1,324.91,152c-.17,15.76-2.31,30.56-10.56,44.28a19.32,19.32,0,0,1-2.22,3.21c-.49.49-.82.74-1,.74q-1-.24-2.21-4a28.63,28.63,0,0,1-1.36-7.27c-.25-3-.37-6.54-.37-10.48q0-4.68.49-10.73c.65-7.83,1.86-15.59,3.23-23.32.53-3,1.09-6.07,1.64-9.11.48-2.62,1.62-5.09,2.05-7.75a10.76,10.76,0,0,0-1-6.92,9.47,9.47,0,0,0-8.43-4.52c-7.2.15-10.09,5.48-10.52,12-.48,7.37.13,15.08-1.06,22.33-2.3,14-3.75,28.55-9.86,41.56v.25q-1.23,2.72-2.46,5.55t-2.47,5.54c-.49.83-1,1.65-1.6,2.47a2.51,2.51,0,0,1-2.1,1.23,7.71,7.71,0,0,1-.86-1.72c-.41-1-.62-3.12-.62-6.41,0-9.74.32-19.49,1.17-29.19A164,164,0,0,1,278.06,148c1.33-5.86,3.34-13-1.32-18a9.65,9.65,0,0,0-10-2.47c-5.08,1.79-6.49,6.94-6.7,11.8a147.29,147.29,0,0,1-3.47,26.24c-1.72,7.66-4.63,14.8-7.44,22.09q-1.84,4.82-3.21,7.65a23.89,23.89,0,0,1-2.21,3.94c-.58.74-1,1.2-1.11,1.36a3.35,3.35,0,0,1-2.47-1.48c-.83-1-1.23-3.45-1.23-7.4,0-1,0-2,.12-3s.2-2.22.37-3.7.37-3.37.62-5.67.53-5.18.86-8.63q.74-7.4,1.23-12.08c.33-3.12.53-5.59.62-7.4s.16-3.17.25-4.07.12-1.52.12-1.85q0-10.11-13.32-16.52a62.28,62.28,0,0,1-7.15-3.95,7.39,7.39,0,0,1-2-1.72v-2.72a40,40,0,0,1,.49-5.18c.68-5.63,1.8-14.09-3.18-18.21-3.75-3.11-9.6-1.56-12.58,1.86-2.54,2.91-3.47,7-3.29,10.83.17,3.62,1.37,6.93,2.35,10.36a43.46,43.46,0,0,1,1.29,11.21c.12,7.67-1.48,14.64-3.38,22s-3.23,14.72-5.51,22A123.72,123.72,0,0,1,191.17,190c-2.07,4.47-4.16,9.45-8,12.66-2.55,2.14-3.19-.11-4-2.51a28.25,28.25,0,0,1-1.35-7.27c-.25-3-.37-6.54-.37-10.48q0-4.68.49-10.73t1.48-13.19c.79-5.7,1.76-11.37,2.82-17,.84-4.49,4-12.09,1.91-16.38a9.85,9.85,0,0,0-9.09-5.32,10,10,0,0,0-7.86,4.56c-2.18,3.45-1.45,8-1.71,11.93-.69,10.05-2.1,20.21-3.52,30.18-1.43,10.12-3.59,20.24-7.95,29.53v.25q-1.25,2.72-2.47,5.55t-2.46,5.54c-.5.83-1,1.65-1.61,2.47a2.48,2.48,0,0,1-2.09,1.23,6.88,6.88,0,0,1-.86-1.72c-.42-1-.62-3.12-.62-6.41a304.62,304.62,0,0,1,4.12-49.39c1-6.24,3.78-13-.81-18.67-2.74-3.38-7.8-5-11.66-3-7.1,3.67-5.37,15-5.72,21.56,0,15.19-2,30.35-2,45.56a34.2,34.2,0,0,0,4.44,17.51c2.13,3.45,4.4,5.71,6.78,6.78a15.69,15.69,0,0,0,6.29,1.6q9.12,0,15.53-10.11v-.24a18.45,18.45,0,0,0,1.36-3c.58-1.48,1.69-4.2,3.33-8.14a62.9,62.9,0,0,0,2.47,6,33.08,33.08,0,0,0,2.22,4.07c2.62,4,6.08,5.92,10.35,5.92q6.9,0,12.95-9.25c4.44-6.79,7.24-14.53,9.9-22.15,5.67-16.31,11.92-32.53,15.11-49.57q4.44,3,5.43,4.81a7.68,7.68,0,0,1,1,2.35v40.19a84.73,84.73,0,0,0,1.35,12.83,13.67,13.67,0,0,0,1.85,4.93q6.42,11.34,16.53,11.34a7.73,7.73,0,0,0,3.82-1.23c1.39-.82,3-2.55,4.68-5.18a67.76,67.76,0,0,0,4.61-8.71,32.77,32.77,0,0,0,4.17,12.78q3.21,5.18,6.78,6.78a15.69,15.69,0,0,0,6.29,1.6q9.12,0,15.54-10.11v-.24a18.69,18.69,0,0,0,1.35-3c.58-1.48,1.69-4.2,3.33-8.14a62.9,62.9,0,0,0,2.47,6,33.08,33.08,0,0,0,2.22,4.07q3.94,5.92,10.36,5.92c6.63,0,11-6.13,14.17-11.21a118.46,118.46,0,0,0,14-34.65c.46-1.92,1-3.82,1.48-5.74.15-.57,1.3-3.36,1-3.88a18,18,0,0,0,1.38,2.11l.07.24q9.39,15,12,24.27,2.24,7.83,1,13.31c-.46,2-1.14,3.36-2.06,4.05a8.06,8.06,0,0,1-2.56,1.37q-2.84.81-8.12-5.13-1.59-4.68-3.79-5.2a7,7,0,0,0-3.38-.19.5.5,0,0,0-.33.21.48.48,0,0,1-.32.23c-2.93,1.69-3.71,5-2.31,9.88q1.48,5.22,7.94,9,9.34,5.81,18.36,3.25,8.53-2.43,12-12.89Q373.93,195.51,370.43,183.17Z" transform="translate(-16.87 -46.71)"/><path class="cls-3" d="M86.63,340.87c-1.84-3.53-7.08-4.93-10-1.77a8.27,8.27,0,0,0-1.72,6.78c.47,3.12,2.16,6.08,3.62,8.83a42.44,42.44,0,0,0,7.29,9.9,46.12,46.12,0,0,0,16,10.51,49,49,0,0,0,9.2,2.62,49.81,49.81,0,0,0,9.53.74,46.11,46.11,0,0,0,45.09-42.08l.09-1.2,0-.55v-.13s0-.36.06-.4l.72-.5,1-.74c.65-.54,1.34-1,2-1.61l.95-.85c.31-.29.6-.59.9-.89.61-.59,1.16-1.23,1.72-1.87,5.44-6.21,10.14-14.85,9.48-23.23-1.11-14.14-10.17-27.09-24-31.12a31.62,31.62,0,0,0-11.53-1.2l-.64.05-.46,0-.48.05H145a19.49,19.49,0,0,1-2.13-.11,36.28,36.28,0,0,1-4.38-.81c-2.58-.71-4.72-1.51-6.45-2.17s-3-1.23-4-1.63c-.51-.2-.88-.37-1.24-.48a4,4,0,0,0-.83-.26.59.59,0,0,0-.8.51,2.5,2.5,0,0,0,.15.91,7.18,7.18,0,0,0,.56,1.18,15.41,15.41,0,0,0,2.23,2.73c.47.5,1,1,1.6,1.48s1.22,1,1.91,1.49a35.14,35.14,0,0,0,4.66,2.89c-.33-.09.89.63,3.29,1.56.62.21,1.27.48,2,.69l1.2.33,1.35.28a12.55,12.55,0,0,0,1.48.21l1.38.14c.7.06,1.4.17,2.12.29a23.44,23.44,0,0,1,8.09,3.15A23.76,23.76,0,0,1,169,304.32a22.4,22.4,0,0,1-6.55,16.34c-.19.19-.38.39-.58.57l-.6.54c-.39.38-.84.68-1.25,1l-.67.47-.33.24-.12.09-.12.06-.45.26c-1.2.69-2.39,1.39-3.63,2.05l-.93.5-.46.25-.23.13-.12.06s0,.08,0,.12l.12,2.11.06,1.06c0,.35,0,.63,0,.95l0,1.85v.93a.79.79,0,0,1,0,.16v.11l0,.22-.06.87a33.49,33.49,0,0,1-32.76,30.54,35,35,0,0,1-25.49-10.1,29.44,29.44,0,0,1-6.25-9.36C87.84,344.52,87.49,342.54,86.63,340.87Z" transform="translate(-16.87 -46.71)"/><path class="cls-4" d="M168.57,250.73l-.16,0c-4.71.48-7.14,5.14-5,9.45,2.31,4.6,8.35,4.21,12.71,4.93,1.87.31,3.75.6,5.81.75.5,0,1,.06,1.59.08l.82,0h.74c1,0,1.94-.05,2.91-.1,1.21-.07,2.41-.17,3.61-.31l.9-.11.83-.11a.61.61,0,0,1,.14,0s-.06-.1-.09-.17l0,.08.18.33.73,1.29.72,1.29.37.65.41.62,1.63,2.48.42.61.45.59.9,1.18.9,1.17.46.59.49.56,2,2.22.49.55c.17.18.35.35.53.52l1.06,1,1.06,1a14.81,14.81,0,0,0,1.1,1,62.14,62.14,0,0,0,20.29,12c.94.32,1.87.67,2.81,1l2.87.77,1.43.38,1.46.29,2.92.55c1,.14,2,.23,2.94.35a29.54,29.54,0,0,0,3,.25l3,.12.74,0,.74,0,1.48-.05c2,0,4-.27,5.92-.46,1-.13,2-.32,2.93-.48l1.46-.25,1.45-.34a60.4,60.4,0,0,0,11.25-3.75l2.69-1.25,2.61-1.42c.89-.45,1.71-1,2.55-1.52s1.69-1,2.48-1.63l2.4-1.75c.77-.61,1.53-1.25,2.29-1.88.38-.32.77-.62,1.13-1l1.08-1,1.08-1,.54-.51.51-.54,2-2.16c.65-.74,1.26-1.52,1.9-2.28.31-.38.63-.75.93-1.15l.87-1.2.87-1.2.43-.6.09-.13s.16-.26.26-.29l.43,0,.75,0,.75-.08,3-.34a57.2,57.2,0,0,0,11.65-3A58.46,58.46,0,0,0,328,261.89a59.79,59.79,0,0,0,9.25-7.68,58.36,58.36,0,0,0,7.37-9.5s1.47-2.54,1.52-2.54h.62l1.36,0,1.35,0c.45,0,.9-.06,1.36-.09,1.8-.11,3.6-.34,5.39-.6a61.94,61.94,0,0,0,48.2-39.31,61.94,61.94,0,0,0-29.91-77c-1.68-.86-3.4-1.62-5.15-2.33-.43-.18-.88-.34-1.32-.5l-.33-.12s-.09,0-.11-.08l-.05-.17-.21-.68c-.13-.45-.31-.9-.46-1.35l-.48-1.34-.53-1.32c-.34-.89-.76-1.75-1.14-2.62a57.67,57.67,0,0,0-32.9-29.85,58.43,58.43,0,0,0-11.07-2.69c-.94-.15-1.89-.22-2.83-.33s-1.89-.14-2.84-.19l-1.42,0c-.48,0-.93,0-1.49,0l-1.44,0a3.15,3.15,0,0,1-.61,0l-.68-.78c-.3-.34-.6-.68-.92-1l-1.9-1.94c-1.24-1.32-2.61-2.51-3.94-3.74s-2.75-2.35-4.13-3.51A96.5,96.5,0,0,0,216.64,51.9a99.35,99.35,0,0,0-10.42,3l-1.28.46s-1.21.46-1.17.47l-.6-.31-1.23-.64a77.54,77.54,0,0,0-20.89-7,76.6,76.6,0,0,0-11-1.18,86.48,86.48,0,0,0-11,.41,84.14,84.14,0,0,0-11.34,2.11,79.42,79.42,0,0,0-10.9,3.79,77.49,77.49,0,0,0-19.47,12.19c-.75.6-1.43,1.28-2.15,1.92l-1.06,1-.16.15-.06,0-.11.11-.39.4h-.19l-.81,0h-.81l-1.49.05-1.48,0-.74,0-.74.07-3,.31c-1,.13-2,.32-2.94.49-.49.09-1,.15-1.46.27l-1.45.36c-1,.24-1.94.44-2.88.77l-2.84.91-2.76,1.09a63.54,63.54,0,0,0-10.39,5.57A76.38,76.38,0,0,0,70.36,86a90.74,90.74,0,0,0-7.78,8.42A108.8,108.8,0,0,0,56,103.67c-2,3.19-3.82,6.45-5.48,9.79a129.12,129.12,0,0,0-8.12,20.71L42,135.5l-.37,1.34c-.24.89-.49,1.78-.72,2.68-.43,1.8-.88,3.6-1.25,5.41s-.71,3.64-1.05,5.46l-.11.71,0,.17v.07l-.47.35c-.42.31-.84.62-1.23,1l-1.19,1-1.13,1c-.77.68-1.45,1.43-2.17,2.15s-1.37,1.49-2,2.28a54.85,54.85,0,0,0-3.58,4.8c-1.06,1.67-2.1,3.36-3,5.11a59.48,59.48,0,0,0-6.7,22.6c-.1,1-.12,2-.15,3s0,2.06.07,3.1a35.47,35.47,0,0,0,.91,6.35c.11.53.29,1.07.44,1.61.08.26.15.53.24.8l.29.8.3.81s.06.16.08.2l0,.06c0,.1.1.15.08.29v1.05c0,.83,0,1.66.07,2.49.08,1.66.22,3.34.44,5a47.55,47.55,0,0,0,.92,5.08s.1.34.3.95.5,1.5.94,2.6a35.7,35.7,0,0,0,4.71,8.36,31.66,31.66,0,0,0,9.36,8.18,40.46,40.46,0,0,0,11,4.2c2.9.75,5.23,1.16,7,1.53a28.65,28.65,0,0,1,4,1A11.52,11.52,0,0,1,60,250a.6.6,0,0,0,.9-.29,2,2,0,0,0,0-1,4.09,4.09,0,0,0-.57-1.4,10,10,0,0,0-2.78-2.75A79.22,79.22,0,0,0,49.19,240c.37.05-1.35-.74-3.76-2.18a33.53,33.53,0,0,1-3.89-2.72,24.57,24.57,0,0,1-3.69-3.73c-.54-.7-1-1.42-1.5-2.15s-.84-1.49-1.2-2.24a27.09,27.09,0,0,1-1.56-4.31,33.37,33.37,0,0,1-.69-3.27c-.07-.4-.11-.72-.13-.95l-.05-.33a46.06,46.06,0,0,1-.78-7.53v-2.33L32,206c0-.09-.05-.17-.08-.26l-.12-.26-.23-.51-.47-1-.11-.26c0-.08-.1-.21-.1-.22l-.07-.21-.15-.42a5.77,5.77,0,0,1-.28-.86,8.66,8.66,0,0,1-.24-.91,27.38,27.38,0,0,1-.54-8.14,40.18,40.18,0,0,1,.55-4.32,43.59,43.59,0,0,1,1-4.32A49.12,49.12,0,0,1,34.34,176,45.63,45.63,0,0,1,39,168.43a35.77,35.77,0,0,1,5.94-6.15c.26-.23.55-.42.82-.63l.23-.17c.2-.15.4-.3.57-.41l1-.7L49.69,159l.27-.18c.08-.06.2-.11.18-.21l.08-.55.17-1.09.67-4.35.43-2.39c.14-.79.3-1.57.47-2.35s.32-1.57.51-2.35c.38-1.56.73-3.12,1.17-4.67.82-3.1,1.8-6.15,2.87-9.17s2.28-6,3.58-8.89c.32-.73.68-1.44,1-2.16s.68-1.44,1.06-2.15l1.09-2.11,1.16-2.08.58-1,.61-1c.41-.67.81-1.35,1.23-2,.88-1.31,1.71-2.65,2.64-3.91s1.87-2.51,2.82-3.75c.48-.61,1-1.19,1.5-1.78l.75-.89c.25-.3.52-.57.78-.86a58.52,58.52,0,0,1,14.07-11.5l2-1.08c.66-.33,1.34-.63,2-1s1.36-.6,2-.87,1.37-.58,2.08-.77l2.1-.68c.71-.19,1.43-.35,2.15-.53.35-.08.71-.19,1.07-.26l1.09-.18L105,82a8,8,0,0,1,1.09-.16l2.2-.23a10.32,10.32,0,0,1,1.11-.06l1.11,0,1.11,0h.49l.48,0,4.75.27.63,0h.31c.07,0,.09,0,.12-.06l.1-.1.79-.79,1.58-1.58,1.57-1.58.2-.2.1-.1,0-.05.22-.19.42-.39,1.7-1.56,1.78-1.46a64.37,64.37,0,0,1,33.5-14c.77-.08,1.54-.13,2.3-.19l1.16-.1c.38,0,.77,0,1.15,0l2.32-.06,2.31,0a64.12,64.12,0,0,1,9.17,1,64.8,64.8,0,0,1,17.47,5.85l1,.53.53.28c.43.22.78.42,1.15.63l2.21,1.26,1.11.62.55.32.59-.24c1.58-.64,3.11-1.29,4.73-1.92l1.16-.44,1.11-.4a83,83,0,0,1,27.77-4.77,83.12,83.12,0,0,1,52.41,18.36c1.2,1,2.46,2,3.59,3s2.35,2.1,3.42,3.25l1.66,1.69c.28.27.54.57.8.86l1,1.13,3.34,3.78.21.24.1.12a.1.1,0,0,0,.13,0l.64,0,1.27-.09,2.54-.19,2-.11,1.09,0c.29,0,.69,0,1.05,0l1.12,0,2.22.14c.73.09,1.48.14,2.21.26a45.46,45.46,0,0,1,8.61,2.1,44.72,44.72,0,0,1,15.16,9.07,43.76,43.76,0,0,1,5.95,6.59,44.31,44.31,0,0,1,4.55,7.63c.3.68.63,1.35.89,2l.41,1,.38,1c.12.35.26.69.36,1l.47,1.54,1.3,4.93c0,.54.55.5.92.67l1.21.39,2.43.77c.4.14.81.25,1.21.42l.78.28c.35.13.7.25,1.05.4,1.38.56,2.76,1.16,4.09,1.85a48.76,48.76,0,0,1,7.6,4.78,50.92,50.92,0,0,1,6.62,6.09,49.25,49.25,0,0,1-28.75,81.66c-1.43.2-2.86.39-4.3.48-.36,0-.72.06-1.08.07l-1.08,0-1.08,0h-.6c-.33,0-.79,0-1.18-.05-1.63-.09-3.28-.23-4.91-.35l-1.22-.09-.31,0c-.05.08-.09.18-.14.27l-.26.55L337,232l-1.07,2.2-.53,1.1-.14.27-.07.14,0,.07L335,236l-.14.22-1.06,1.84a46.34,46.34,0,0,1-5.68,7.33,47.07,47.07,0,0,1-7.14,5.92,42.17,42.17,0,0,1-17.2,6.54l-2.3.26-.58.07-.58,0-2.18.08a10.33,10.33,0,0,1-1.35,0l-1.39-.08-1.39-.08a1.21,1.21,0,0,0-.33,0l-.17.28-.34.53-2.69,4.26-.33.53L290,264l-.08.13,0,.07-.35.48-.69,1-.7,1c-.23.31-.5.61-.74.92-.51.6-1,1.22-1.52,1.82L284.23,271l-.4.44-.43.4-.87.81-.86.81c-.28.28-.6.51-.9.77-.62.5-1.21,1-1.83,1.5L277,277.16c-.62.49-1.32.87-2,1.3a22.94,22.94,0,0,1-2,1.21l-2.08,1.14-2.15,1a47.49,47.49,0,0,1-9,3l-1.14.27-1.17.2c-.78.12-1.55.28-2.33.38-1.57.15-3.14.37-4.72.37l-1.18,0-.6,0-.59,0-2.37-.09a20.5,20.5,0,0,1-2.35-.2c-.79-.1-1.57-.17-2.35-.27l-2.33-.45-1.16-.22-1.14-.31-2.28-.61c-.75-.24-1.49-.52-2.23-.77a49.66,49.66,0,0,1-16.18-9.6,9.37,9.37,0,0,1-.87-.8l-.85-.83-.85-.82c-.14-.14-.28-.27-.42-.42l-.39-.44-1.57-1.77-.4-.44-.36-.47-.72-.94-.72-.94-.36-.47-.33-.49-1.3-2-.33-.49-.29-.51-.58-1-.58-1-.14-.25-.21-.38-.14-.31-.57-1.21L201,251.56l-.18-.37c0-.06-.05-.14-.09-.17l-.2,0-.81.17-1.62.35-3.26.69-1.61.3-1.48.23-.79.11-.72.09c-1,.11-1.93.19-2.89.24-.78,0-1.55.07-2.33.08h-.57l-.5,0a9.44,9.44,0,0,1-1-.05,45.27,45.27,0,0,1-4.59-.6C175.05,252.11,171.91,250.46,168.57,250.73Z" transform="translate(-16.87 -46.71)"/><path class="cls-5" d="M35.63,261.37" transform="translate(-16.87 -46.71)"/><path class="cls-6" d="M215.23,216.57a1.93,1.93,0,0,0-1.36.39,4.67,4.67,0,0,0-1.63,3c-1.12,4.94-.64,9.8.23,14.73a66.27,66.27,0,0,0,2.95,11.1,44.9,44.9,0,0,0,4.8,9.58,34.49,34.49,0,0,0,2.08,2.81c.27.33.48.58.63.74l.23.26.23.26c.15.16.36.41.67.71a28.44,28.44,0,0,0,2.61,2.43,29.28,29.28,0,0,0,9.88,5.39,34.35,34.35,0,0,0,6.18,1.3,40.41,40.41,0,0,0,5.82.23c5.63-.12,11.51-1.29,16.12-4.68,2.68-2,1.06-3.74-1.42-4.4-5.05-1.36-9.93,1-15,1.09a35.26,35.26,0,0,1-4.65-.18,26.11,26.11,0,0,1-4.68-1,21.41,21.41,0,0,1-7.23-3.91,22.87,22.87,0,0,1-1.95-1.79c-.23-.22-.39-.42-.5-.54l-.18-.2-.17-.19c-.12-.13-.28-.32-.48-.58a25.39,25.39,0,0,1-1.61-2.19,37.25,37.25,0,0,1-3.92-7.91,58.61,58.61,0,0,1-2.58-9.76c-.55-3-.8-5.6-.93-6.87C219.22,224.64,218,217,215.23,216.57Z" transform="translate(-16.87 -46.71)"/><path class="cls-7" d="M42.13,225.7a1.78,1.78,0,0,0,2.13.76,4.73,4.73,0,0,0,2-1.46c4.91-5.29,9.45-13.1,9.46-20.52a16.25,16.25,0,0,0-1.28-6.32,14.37,14.37,0,0,0-1-2c-.34-.53-.59-1-.84-1.32a23.67,23.67,0,0,0-8.46-6.46c-.77-.38-2.48-1.56-3.34-.84a.65.65,0,0,0-.19.66c.24.85,1.89,1.76,2.52,2.37,1.16,1.12,2.36,2.21,3.48,3.36.45.47.89,1,1.32,1.46.27.32,1.42,1.33,1.42,1.74.21.26.39.62.65,1a10.11,10.11,0,0,1,.75,1.51c3.92,8.52-3.11,17.05-7.87,23.46C42.32,223.9,41.75,224.84,42.13,225.7Z" transform="translate(-16.87 -46.71)"/><path class="cls-8" d="M189.35,109.5a.52.52,0,0,0,.16-.06,1.53,1.53,0,0,0,.76-1.2,3.63,3.63,0,0,0-.19-1.46c-1.09-3.89-3.61-7.26-5.91-10.51-.31-.44-.72-1-1.35-1.82s-1.46-1.86-2.7-3.2a37.69,37.69,0,0,0-6.57-5.76,29,29,0,0,0-3.44-2c-.93-.45-1.53-.69-1.53-.69l-.36-.15c-.23-.09-.55-.23-1-.37a23.91,23.91,0,0,0-3.4-.93,23.44,23.44,0,0,0-8.56,0,27.93,27.93,0,0,0-5.87,1.8c-.74.3-1.35.61-1.88.87s-.95.5-1.3.69a26.27,26.27,0,0,0-6.74,5.14A17.75,17.75,0,0,0,137,93.3c-.55,1-.42,2.19,1,1.54,3.72-1.77,6.64-4.77,10.25-6.68.31-.17.69-.39,1.16-.61s1-.5,1.66-.76a23.86,23.86,0,0,1,5-1.54,19.41,19.41,0,0,1,7.09,0,20.18,20.18,0,0,1,2.83.76c.36.11.63.24.83.31l.3.12a23.74,23.74,0,0,1,4.26,2.35A35.46,35.46,0,0,1,177.19,94a87.09,87.09,0,0,1,6.74,8.79c1.06,1.53,2.23,3,3.21,4.63C187.6,108.1,188.19,109.88,189.35,109.5Z" transform="translate(-16.87 -46.71)"/><path class="cls-9" d="M256.18,57.51c-3.58.51-5.8,1.33-7.54,4-.46.74-1.37,2.24-2.37,4.13s-2.09,4.17-3,6.43a60.11,60.11,0,0,0-2.15,6.13c-.25.83-.42,1.52-.54,2l-.19.75,0,.2c0,.13-.08.32-.13.56-.1.49-.25,1.19-.42,2a46.93,46.93,0,0,0-.72,6.64,30.94,30.94,0,0,0,1.21,10.62,12.85,12.85,0,0,0,4.25,6.36,2.42,2.42,0,0,0,3.93-1.31c1.05-3.1-.52-6.47-1-9.52a32.6,32.6,0,0,1-.39-5.91,40,40,0,0,1,.57-5.46c.14-.72.26-1.32.35-1.73,0-.21.07-.37.1-.48l0-.17.17-.65c.1-.41.25-1,.48-1.72a55.25,55.25,0,0,1,1.9-5.34c.82-2,1.79-4,2.69-5.73s1.7-3.06,2.09-3.74A7.87,7.87,0,0,0,256.54,62,29.28,29.28,0,0,0,256.18,57.51Z" transform="translate(-16.87 -46.71)"/><path class="cls-10" d="M134.58,295.15a3.71,3.71,0,0,0-4,.18c-2.4,1.54-4.09,4.74-5.38,7.19-1,1.88-2.09,4.17-3,6.42a59.87,59.87,0,0,0-2.14,6.14c-.26.82-.43,1.52-.55,2l-.18.76-.06.2c0,.12-.07.31-.12.56-.11.49-.26,1.19-.43,2a46.76,46.76,0,0,0-.72,6.64,40,40,0,0,0,.49,7.47c.09.56.22,1.1.32,1.6s.19,1,.33,1.39c.67,2.23,2.37,6.5,5,6.88,4.11.59,3.94-4.79,3.09-7.37-.09-.35-.24-.87-.42-1.52-.11-.32-.15-.69-.24-1.07s-.18-.8-.25-1.24a33.48,33.48,0,0,1-.39-5.9,41.41,41.41,0,0,1,.57-5.46c.15-.73.27-1.32.35-1.74,0-.21.07-.37.1-.48l0-.16.16-.65c.11-.41.25-1,.48-1.72a56.29,56.29,0,0,1,1.9-5.35c.82-2,1.79-4,2.69-5.72,1.18-2.26,2.9-5,3.43-7.49a3.6,3.6,0,0,0-1-3.47Z" transform="translate(-16.87 -46.71)"/><path class="cls-11" d="M321.1,255.45c.44-3.59.22-5.95-2-8.33-.6-.64-1.81-1.91-3.37-3.37s-3.49-3.1-5.43-4.57a60.48,60.48,0,0,0-5.37-3.66c-.73-.46-1.36-.8-1.79-1l-.69-.38-.17-.1-.51-.27-1.88-.95a47.85,47.85,0,0,0-6.22-2.42,40.55,40.55,0,0,0-7.34-1.46c-.57-.06-1.12-.07-1.63-.1s-1-.07-1.43-.05l-2.05.06a9.41,9.41,0,0,0-4.41,1.29,3.71,3.71,0,0,0-1.72,2.12,3.35,3.35,0,0,0,1,3.15,5.54,5.54,0,0,0,3.13,1.37,22,22,0,0,0,4,0,11,11,0,0,1,1.1.05c.39,0,.82,0,1.26.08a33,33,0,0,1,5.8,1.15,41.57,41.57,0,0,1,5.13,2l1.58.79c.19.09.34.16.44.22l.15.09.58.32c.37.21.9.51,1.53.91a50.63,50.63,0,0,1,4.67,3.23c1.71,1.3,3.43,2.77,4.84,4.07s2.51,2.44,3.07,3a7.68,7.68,0,0,0,3.27,2A27.92,27.92,0,0,0,321.1,255.45Z" transform="translate(-16.87 -46.71)"/><path class="cls-12" d="M380,195.91c.76-.06,1.12-.95,1.3-1.7a47.26,47.26,0,0,0,.31-18.47c-1.56-9.41-5.79-21.69-15.41-25.61a1.56,1.56,0,0,0-1.39-.08.83.83,0,0,0-.4.71c0,.77,1.15,1.37,1.62,1.85,7.25,7.43,11.34,18.09,12.44,28.33.42,3.92.27,7.87.32,11.81C378.82,193.66,378.48,196,380,195.91Z" transform="translate(-16.87 -46.71)"/><path class="cls-13" d="M282.88,122.35c.22.1.49,0,.82-.27a2.11,2.11,0,0,0,.5-1.27,63.89,63.89,0,0,0,.74-15.5,44.88,44.88,0,0,0-1.4-7.45,61.88,61.88,0,0,0-2.28-7.43,30.23,30.23,0,0,0-7.77-11.11,34.71,34.71,0,0,0-4.61-3.76,2.77,2.77,0,0,0-1-.43,1,1,0,0,0-1,.35,1,1,0,0,0-.07.93,2.8,2.8,0,0,0,.52.81q1.61,2,3.23,4a49.54,49.54,0,0,1,7.8,13.8A43.63,43.63,0,0,1,281,106.91l.38,4.66.51,6.14C282,118.73,281.68,121.81,282.88,122.35Z" transform="translate(-16.87 -46.71)"/><path class="cls-14" d="M245.15,251.66a2.26,2.26,0,0,0,1.52-.85,6.06,6.06,0,0,0,.85-3.47c.09-1.88-.49-3.69-.49-5.54a32.94,32.94,0,0,0-.66-3.58c-.11-.48-.22-.86-.3-1.13l-.11-.42s0-.15-.13-.42l-.36-1.12a27.22,27.22,0,0,0-1.5-3.42c-1.53-2.85-4.6-8.1-7.32-5.9-2.14,2.94,2.67,5.14,3.9,7.76a9,9,0,0,1,1.17,2.89c.13.4.24.73.32,1a3.47,3.47,0,0,1,.11.37l.1.36c.06.24.16.57.25,1,.2.83.41,2,.57,3.18a42.25,42.25,0,0,1,.33,5.27c0,1.08-.2,2.63.53,3.53A1.35,1.35,0,0,0,245.15,251.66Z" transform="translate(-16.87 -46.71)"/><path class="cls-15" d="M117.49,132.4a2.38,2.38,0,0,0,2.1-1.14c2.54-3.19,3.51-7.23,4.25-11.16a87.21,87.21,0,0,0,1.63-16.18c0-1.6-.22-3.21-.22-4.81,0-.43-.1-.85-.17-1.24s-.12-.75-.18-1.09a11,11,0,0,0-1.75-4.47,4.76,4.76,0,0,0-1.81-1.64c-1.73-.75-1.22,1.46-1.07,2.41.46,2.91.91,5.83,1.1,8.77a43.64,43.64,0,0,1-.43,8.54A98.25,98.25,0,0,1,117,127.75l-.33,1a5.24,5.24,0,0,0-.4,2,1.73,1.73,0,0,0,1.13,1.59Z" transform="translate(-16.87 -46.71)"/><path class="cls-16" d="M150.67,53a14.53,14.53,0,0,0-1.59,5.25,10.7,10.7,0,0,0,1,5.37c.24.53.62,1.31,1.12,2.26s1.16,2.07,1.86,3.21A74.23,74.23,0,0,1,157,76.22c.61,1.24,1.08,2.48,1.55,3.62.23.56.39,1.12.58,1.64s.37,1,.48,1.47c.25.9.47,1.65.6,2.17s.18.82.18.82l.17.81c.13.53.2,1.28.35,2.19a30,30,0,0,1,.08,6.84,25.12,25.12,0,0,1-1.85,7.13,27.15,27.15,0,0,1-2.4,4.36,23.71,23.71,0,0,0-2.68,4.56c-.52,1.35-1,4.31.94,4.84a3.08,3.08,0,0,0,1.35,0,11.51,11.51,0,0,0,6.89-4.84,30.93,30.93,0,0,0,3.24-5.74,32.58,32.58,0,0,0,2.45-9.44,37.3,37.3,0,0,0-.13-8.71c-.18-1.12-.29-2.06-.44-2.69l-.22-1-.2-1c-.16-.63-.41-1.51-.71-2.6-.13-.54-.36-1.11-.55-1.72s-.41-1.27-.68-1.93c-.53-1.31-1.07-2.76-1.76-4.15a75.64,75.64,0,0,0-4.31-8c-1.3-2.1-2.17-3.8-2.6-4.68a13.63,13.63,0,0,0-2.7-3.82C153.53,55.33,152.25,54.35,150.67,53Z" transform="translate(-16.87 -46.71)"/><path class="cls-17" d="M210.6,356.27V320.68h10.88q8.16,0,13.1,4.92t4.95,12.87q0,8-4.95,12.9t-13.1,4.9Zm4.57-31.22v26.84h6.31q6.21,0,9.79-3.55t3.59-9.87q0-6.25-3.59-9.84t-9.79-3.58Z" transform="translate(-16.87 -46.71)"/><path class="cls-18" d="M247,323.51a3.23,3.23,0,1,1-.94-2.28A3.11,3.11,0,0,1,247,323.51Zm-.94,8.4v24.36h-4.58V331.91Z" transform="translate(-16.87 -46.71)"/><path class="cls-19" d="M259.46,367.8a13.58,13.58,0,0,1-3.83-.52,12.33,12.33,0,0,1-3.25-1.47,10.21,10.21,0,0,1-2.51-2.24,9.46,9.46,0,0,1-1.6-2.88l4.33-1.79a6.86,6.86,0,0,0,2.58,3.43,7.27,7.27,0,0,0,4.28,1.29,7.56,7.56,0,0,0,5.81-2.23,8.69,8.69,0,0,0,2.09-6.16v-2.34h-.2a9,9,0,0,1-3.5,3.05,10.43,10.43,0,0,1-4.8,1.12,10.78,10.78,0,0,1-8.2-3.72,13.53,13.53,0,0,1-3.38-9.25,13.31,13.31,0,0,1,3.38-9.19,10.71,10.71,0,0,1,8.2-3.78,10.43,10.43,0,0,1,4.8,1.12,9,9,0,0,1,3.5,3.05h.2v-3.38h4.38v23.32q0,5.85-3.34,9.19A12.09,12.09,0,0,1,259.46,367.8Zm.15-14.91a7,7,0,0,0,5.51-2.44,10.08,10.08,0,0,0,0-12.67,7,7,0,0,0-5.51-2.49,7.12,7.12,0,0,0-5.52,2.49,9.09,9.09,0,0,0-2.24,6.31,9,9,0,0,0,2.24,6.31A7.12,7.12,0,0,0,259.61,352.89Z" transform="translate(-16.87 -46.71)"/><path class="cls-20" d="M280.13,323.51a3.23,3.23,0,1,1-.94-2.28A3.11,3.11,0,0,1,280.13,323.51Zm-.94,8.4v24.36h-4.57V331.91Z" transform="translate(-16.87 -46.71)"/><path class="cls-21" d="M291.47,356.67a7,7,0,0,1-5-1.84,6.82,6.82,0,0,1-2-5.12V336.09h-4.28v-4.18h4.28v-7.45h4.57v7.45h6v4.18h-6v12.13c0,1.62.32,2.72.94,3.3a3.09,3.09,0,0,0,2.14.87,4.74,4.74,0,0,0,1.07-.12,5.53,5.53,0,0,0,1-.33l1.44,4.08A12.25,12.25,0,0,1,291.47,356.67Z" transform="translate(-16.87 -46.71)"/><path class="cls-22" d="M305.09,331.12a11.34,11.34,0,0,1,8,2.71,9.62,9.62,0,0,1,2.93,7.43v15h-4.38v-3.38h-.19a8.73,8.73,0,0,1-7.56,4.17,9.8,9.8,0,0,1-6.73-2.38,7.61,7.61,0,0,1-2.71-6,7.25,7.25,0,0,1,2.85-6,12.09,12.09,0,0,1,7.64-2.24,13.51,13.51,0,0,1,6.7,1.49v-1a5.22,5.22,0,0,0-1.88-4.05,6.5,6.5,0,0,0-4.43-1.67,7,7,0,0,0-6.06,3.23l-4-2.53Q298.57,331.12,305.09,331.12Zm-5.92,17.69a3.64,3.64,0,0,0,1.52,3,5.59,5.59,0,0,0,3.55,1.19,7.29,7.29,0,0,0,5.15-2.14,6.7,6.7,0,0,0,2.25-5,9.41,9.41,0,0,0-6-1.69,7.82,7.82,0,0,0-4.65,1.34A4,4,0,0,0,299.17,348.81Z" transform="translate(-16.87 -46.71)"/><path class="cls-23" d="M322.68,320.68v35.59h-4.57V320.68Z" transform="translate(-16.87 -46.71)"/></svg>