<svg version="1.1" id="Layer_1" xmlns="http://www.w3.org/2000/svg" xmlns:xlink="http://www.w3.org/1999/xlink" x="0px" y="0px"
	 viewBox="0 0 425.2 425.2" style="enable-background:new 0 0 425.2 425.2;" xml:space="preserve">
<style type="text/css">
	.st0{fill:#FFFFFF;}
</style>
<g>
	<g>
		<g>
			<g>
				<path class="st0" d="M137.5,239.11c4.9,0,11.75,1.83,14.35,6.42c2.33,4.12-0.14,8.9-4.01,10.99c-4.81,2.58-10.4-0.09-15.33-0.92
					c-3.92-0.66-7.92-0.94-11.9-0.71c-2.71,0.16-4.65,0.33-5.8,0.49v18.74c0,19.4-2.3,33.7-6.9,42.91c-6.08,12-16.85,18-32.31,18
					c-12.5,0-23.34-4.36-32.55-13.07c-9.37-8.88-14.06-19.07-14.06-30.58c0-8.88,4.28-16.85,12.82-23.92
					c8.22-6.74,20.39-12.82,36.5-18.25l0.25-0.25c2.79-0.66,5.88-1.4,9.25-2.22c3.37-0.82,7.03-1.89,10.97-3.21
					c-0.33-2.3-0.58-27.33-0.74-31.61c-0.17-0.99-0.29-1.97-0.37-2.96c-0.09-0.99-0.12-1.89-0.12-2.71
					c-3.78,6.9-8.06,10.36-12.82,10.36c-6.41,0-11.68-3.21-15.78-9.62c-3.62-5.75-5.43-13.23-5.43-22.44c0-6.25,0.7-13.11,2.1-20.59
					c1.39-7.48,3.49-16.15,6.29-26.02c1.31-5.26,2.67-9.7,4.07-13.32c1.4-3.61,2.75-6.82,4.07-9.62c1.15-2.13,2.59-4.32,4.32-6.54
					c1.73-2.22,3.82-3.33,6.29-3.33c1.81,0,3.78,0.45,5.92,1.36c2.13,0.9,4.15,2.14,6.04,3.7c1.89,1.56,3.53,3.41,4.93,5.55
					c1.39,2.14,2.26,4.36,2.59,6.66c0.71,4.54,2.66,15.75-3.68,17.49c-1.3,0.36-2.77,0.05-3.81-0.81c-1.67-1.37-2.05-3.74-2.19-5.89
					c-0.17-2.75-4.49-14.97-7.03-7.46c-2.19,6.5-4.35,13-6.22,19.61c-2.47,9.04-4.32,17.06-5.55,24.04
					c-1.23,6.99-1.85,13.61-1.85,19.85c0,5.1,0.33,8.63,0.99,10.6c0.65,1.97,1.31,2.96,1.97,2.96c1.15-0.49,2.3-1.56,3.45-3.21
					c1.15-1.64,2.5-4.15,4.07-7.52c3.5-7.54,5.79-15.56,7.75-23.62c0.98-4.02,2.08-8.08,2.83-12.15c0.62-3.37,0.29-7.18,2.35-10.12
					c1.56-2.24,4.66-3.02,7.33-2.47c2.75,0.57,6.83,2.26,7.42,5.33c0.45,2.37-0.63,5.03-1.03,7.37c-2.83,16.56-4.96,33.63-4.6,50.37
					c0.24,11.25,0.44,22.54,1.26,33.78C124.59,239.61,132.56,239.11,137.5,239.11z M73.25,319.75c18.49,0,27.75-14.63,27.75-43.9
					c0-0.33-0.09-1.65-0.25-3.95c-0.17-2.3-0.41-7.07-0.74-14.3c-8.68,0.33-15.55,1.48-20.62,3.45c-8.84,3.61-16.7,8.22-23.57,13.81
					c-7.69,6.41-11.54,12.66-11.54,18.74c0,6.9,2.95,12.9,8.84,18C59.18,317.04,65.88,319.75,73.25,319.75z"/>
				<path class="st0" d="M370.43,183.17c-0.85-3-2.44-6.78-4.76-11.34c-2.32-4.55-5.58-9.99-9.77-16.32
					c-2.62-3.96-5.36-8.11-7.39-12.38c-2.31-4.84-3.52-10.29-5.15-15.39c-1.01-3.17-2.14-6.3-3.2-9.45
					c-0.92-2.74-1.6-5.31-3.92-7.28c-2.63-2.23-5.91-2.84-9.16-1.91c-3.17,0.9-5.36,2.51-6.58,4.82c-1.23,2.31-1.38,5.05-0.48,8.21
					c1.53,5.38,2.74,10.54,3.64,15.5c0.9,4.96,1.32,9.75,1.27,14.38c-0.17,15.76-2.31,30.56-10.56,44.28
					c-0.99,1.65-1.73,2.71-2.22,3.21c-0.49,0.49-0.82,0.74-0.99,0.74c-0.66-0.16-1.4-1.48-2.22-3.95c-0.66-1.81-1.11-4.23-1.36-7.27
					c-0.25-3.04-0.37-6.54-0.37-10.48c0-3.12,0.16-6.7,0.49-10.73c0.64-7.83,1.86-15.59,3.22-23.32c0.54-3.04,1.1-6.07,1.65-9.11
					c0.47-2.62,1.62-5.08,2.04-7.75c0.37-2.34,0.19-4.85-0.96-6.92c-1.63-2.93-5.08-4.59-8.43-4.52c-7.2,0.15-10.1,5.48-10.52,12.02
					c-0.48,7.37,0.13,15.08-1.06,22.33c-2.3,14.02-3.75,28.55-9.86,41.56v0.25c-0.83,1.81-1.65,3.66-2.47,5.55
					c-0.82,1.89-1.65,3.74-2.47,5.55c-0.49,0.82-1.03,1.65-1.6,2.47c-0.58,0.82-1.28,1.23-2.1,1.23c-0.17-0.16-0.45-0.74-0.86-1.73
					c-0.41-0.99-0.62-3.12-0.62-6.41c0-9.74,0.32-19.48,1.17-29.19c0.63-7.2,1.6-14.69,3.23-21.86c1.33-5.86,3.34-12.94-1.32-17.96
					c-2.48-2.67-6.59-3.68-10.02-2.47c-5.08,1.79-6.5,6.94-6.7,11.8c-0.37,8.85-1.53,17.57-3.47,26.25
					c-1.72,7.66-4.63,14.79-7.44,22.09c-1.23,3.21-2.3,5.76-3.21,7.64c-0.91,1.89-1.64,3.21-2.22,3.95
					c-0.58,0.74-0.95,1.19-1.11,1.36c-0.82,0-1.64-0.49-2.47-1.48c-0.82-0.99-1.23-3.45-1.23-7.4c0-0.99,0.04-1.97,0.12-2.96
					c0.08-0.99,0.2-2.22,0.37-3.7c0.16-1.48,0.37-3.37,0.62-5.67c0.25-2.3,0.53-5.18,0.86-8.63c0.49-4.93,0.9-8.96,1.23-12.08
					c0.33-3.12,0.53-5.59,0.62-7.4c0.08-1.81,0.16-3.16,0.25-4.07c0.08-0.9,0.12-1.52,0.12-1.85c0-6.74-4.44-12.25-13.32-16.52
					c-3.62-1.81-6-3.12-7.15-3.95c-1.15-0.82-1.81-1.39-1.97-1.73c0-0.66,0-1.56,0-2.71c0-1.15,0.16-2.87,0.49-5.18
					c0.68-5.64,1.8-14.09-3.18-18.21c-3.76-3.11-9.6-1.57-12.58,1.85c-2.54,2.92-3.48,6.97-3.29,10.83
					c0.17,3.61,1.37,6.93,2.35,10.36c1.02,3.57,1.23,7.49,1.29,11.21c0.12,7.67-1.49,14.64-3.38,21.99
					c-1.88,7.29-3.23,14.72-5.51,21.95c-1.58,5.03-3.43,9.98-5.64,14.77c-2.06,4.47-4.16,9.45-7.98,12.66
					c-2.55,2.14-3.19-0.1-3.98-2.51c-0.66-1.81-1.11-4.23-1.36-7.27c-0.25-3.04-0.37-6.54-0.37-10.48c0-3.12,0.16-6.7,0.49-10.73
					c0.33-4.03,0.82-8.42,1.48-13.19c0.79-5.7,1.76-11.36,2.82-17.02c0.84-4.49,4.03-12.1,1.91-16.38
					c-1.65-3.33-5.38-5.49-9.09-5.33c-3.15,0.14-6.18,1.9-7.86,4.56c-2.18,3.45-1.45,8.01-1.72,11.93
					c-0.68,10.05-2.1,20.21-3.51,30.19c-1.43,10.11-3.59,20.23-7.95,29.53v0.25c-0.82,1.81-1.65,3.66-2.47,5.55
					c-0.82,1.89-1.65,3.74-2.47,5.55c-0.49,0.82-1.03,1.65-1.6,2.47c-0.58,0.82-1.28,1.23-2.1,1.23c-0.17-0.16-0.45-0.74-0.86-1.73
					c-0.41-0.99-0.62-3.12-0.62-6.41c0-16.3,1.44-33.22,4.12-49.38c1.04-6.25,3.78-13.03-0.8-18.68c-2.74-3.37-7.8-5.01-11.66-3.01
					c-7.09,3.67-5.37,15.02-5.72,21.56c0,15.19-1.96,30.35-1.96,45.56c0,6.58,1.48,12.41,4.44,17.51c2.13,3.45,4.4,5.71,6.78,6.78
					c2.38,1.07,4.48,1.6,6.29,1.6c6.08,0,11.26-3.37,15.54-10.11v-0.25c0.33-0.49,0.78-1.48,1.36-2.96
					c0.57-1.48,1.68-4.19,3.33-8.14c0.82,2.3,1.64,4.32,2.47,6.04c0.82,1.73,1.56,3.08,2.22,4.07c2.63,3.95,6.08,5.92,10.36,5.92
					c4.6,0,8.92-3.08,12.95-9.25c4.44-6.79,7.24-14.53,9.9-22.15c5.68-16.31,11.93-32.54,15.12-49.57c2.96,1.97,4.77,3.58,5.43,4.81
					c0.65,1.23,0.99,2.02,0.99,2.34v21.21v18.99c0.33,6.08,0.78,10.36,1.36,12.82c0.57,2.47,1.19,4.11,1.85,4.93
					c4.27,7.56,9.78,11.34,16.52,11.34c1.15,0,2.42-0.41,3.82-1.23c1.4-0.82,2.96-2.55,4.69-5.18c1.4-2.13,2.94-5.06,4.61-8.71
					c0.55,4.68,1.94,8.94,4.17,12.78c2.13,3.45,4.4,5.71,6.78,6.78c2.38,1.07,4.48,1.6,6.29,1.6c6.08,0,11.26-3.37,15.54-10.11
					v-0.25c0.33-0.49,0.78-1.48,1.36-2.96c0.57-1.48,1.68-4.19,3.33-8.14c0.82,2.3,1.64,4.32,2.47,6.04
					c0.82,1.73,1.56,3.08,2.22,4.07c2.63,3.95,6.08,5.92,10.36,5.92c6.64,0,11.05-6.13,14.18-11.21
					c6.58-10.7,11.04-22.46,13.96-34.65c0.46-1.92,0.98-3.82,1.48-5.74c0.15-0.57,1.3-3.37,1.01-3.88c0.46,0.79,0.91,1.51,1.38,2.11
					l0.07,0.24c6.26,10.01,10.27,18.1,12.03,24.27c1.48,5.22,1.8,9.66,0.96,13.31c-0.45,2.01-1.14,3.36-2.05,4.05
					c-0.92,0.69-1.77,1.14-2.56,1.37c-1.9,0.54-4.61-1.17-8.12-5.13c-1.06-3.12-2.32-4.85-3.79-5.2c-1.47-0.35-2.59-0.42-3.39-0.19
					c-0.16,0.04-0.26,0.12-0.32,0.22c-0.05,0.1-0.16,0.18-0.32,0.22c-2.94,1.69-3.71,4.99-2.32,9.89c0.99,3.48,3.64,6.49,7.95,9.02
					c6.23,3.87,12.34,4.95,18.36,3.24c5.69-1.62,9.68-5.91,11.97-12.89C372.91,198.53,372.77,191.39,370.43,183.17z"/>
				<g>
					<path class="st0" d="M86.63,340.87c-1.84-3.54-7.08-4.93-9.96-1.77c-1.63,1.78-2.09,4.39-1.73,6.78
						c0.47,3.12,2.16,6.08,3.62,8.84c1.94,3.65,4.42,6.98,7.28,9.9c4.56,4.61,10.07,8.18,16.02,10.51c2.98,1.17,6.06,2.05,9.2,2.61
						c3.14,0.56,6.33,0.81,9.53,0.74c6.42-0.12,12.84-1.6,18.66-4.33c5.84-2.72,11.06-6.69,15.28-11.54
						c4.22-4.85,7.43-10.58,9.31-16.74c0.94-3.08,1.56-6.26,1.84-9.46l0.09-1.2l0.04-0.56l0-0.13c0,0,0.01-0.36,0.05-0.4l0.72-0.5
						c0.34-0.25,0.69-0.49,1.03-0.74c0.66-0.53,1.34-1.03,1.96-1.61l0.94-0.85c0.31-0.29,0.6-0.6,0.9-0.89
						c0.61-0.59,1.16-1.23,1.72-1.87c5.45-6.21,10.14-14.85,9.48-23.23c-1.11-14.13-10.17-27.09-24.04-31.11
						c-3.52-1.04-7.58-1.55-11.54-1.2l-0.63,0.05l-0.47,0.04c-0.16,0.01-0.31,0.04-0.48,0.05l-0.51,0c-0.68,0.03-1.41-0.06-2.13-0.1
						c-1.46-0.18-2.95-0.46-4.38-0.81c-2.58-0.71-4.72-1.51-6.45-2.17c-1.73-0.67-3.05-1.23-4.02-1.63
						c-0.51-0.19-0.88-0.37-1.24-0.48c-0.32-0.12-0.59-0.21-0.83-0.25c-0.46-0.1-0.71,0.08-0.8,0.5c-0.02,0.23,0.03,0.53,0.15,0.92
						c0.12,0.35,0.31,0.74,0.56,1.17c0.5,0.81,1.25,1.78,2.22,2.73c0.48,0.5,1.02,0.97,1.6,1.48c0.59,0.48,1.22,1.01,1.91,1.49
						c1.36,1.01,2.92,1.98,4.66,2.89c-0.33-0.09,0.9,0.63,3.29,1.56c0.61,0.22,1.27,0.48,2.05,0.69c0.39,0.11,0.78,0.22,1.2,0.34
						c0.44,0.09,0.89,0.18,1.35,0.28c0.45,0.1,0.96,0.16,1.49,0.21c0.45,0.05,0.91,0.09,1.38,0.14c0.69,0.06,1.4,0.17,2.11,0.29
						c2.86,0.52,5.77,1.68,8.1,3.15c6.94,3.78,11.65,11.86,11.81,19.69c0.12,5.89-2.23,12.24-6.55,16.34
						c-0.19,0.19-0.37,0.39-0.57,0.57l-0.6,0.54c-0.39,0.38-0.84,0.68-1.25,1.03l-0.66,0.47l-0.33,0.24c0,0-0.08,0.06-0.13,0.09
						l-0.11,0.06l-0.45,0.26c-1.2,0.69-2.39,1.39-3.64,2.05l-0.92,0.5l-0.46,0.25l-0.23,0.13l-0.12,0.06
						c-0.03,0.02,0,0.08-0.01,0.12l0.12,2.11l0.06,1.06c0.02,0.35,0.01,0.63,0.02,0.95l0.03,1.86l0.02,0.93c0,0.09,0,0.12,0,0.16
						l-0.01,0.11l-0.02,0.22l-0.07,0.87c-0.2,2.33-0.65,4.63-1.33,6.86c-1.36,4.46-3.7,8.62-6.77,12.15
						c-3.07,3.53-6.87,6.43-11.11,8.39c-4.23,1.98-8.86,3.05-13.55,3.14c-9.44,0.24-19-3.49-25.49-10.1
						c-2.65-2.68-4.8-5.87-6.25-9.36C87.84,344.52,87.49,342.54,86.63,340.87z"/>
				</g>
				<g>
					<path class="st0" d="M168.57,250.73c-0.05,0-0.11,0.01-0.16,0.01c-4.71,0.48-7.14,5.14-4.97,9.45
						c2.31,4.61,8.36,4.21,12.72,4.93c1.87,0.31,3.75,0.6,5.81,0.74c0.5,0.05,1.04,0.07,1.59,0.08l0.82,0.02l0.74,0
						c0.97-0.01,1.95-0.04,2.92-0.1c1.21-0.07,2.41-0.17,3.6-0.31l0.9-0.11l0.83-0.11c0,0,0.13-0.02,0.14-0.01
						c0.02,0.04-0.06-0.09-0.09-0.16l0.04,0.08l0.18,0.32l0.73,1.3l0.73,1.29l0.37,0.64l0.41,0.62l1.64,2.48l0.41,0.62l0.45,0.59
						l0.9,1.18l0.91,1.17l0.45,0.59l0.49,0.56l1.97,2.22l0.49,0.55c0.17,0.18,0.35,0.35,0.53,0.52l1.06,1.04l1.06,1.03
						c0.35,0.35,0.71,0.69,1.09,1c5.94,5.21,12.81,9.42,20.29,12.04c0.94,0.32,1.86,0.67,2.81,0.97l2.87,0.78l1.44,0.38l1.46,0.28
						l2.92,0.55c0.98,0.14,1.96,0.23,2.95,0.35c0.98,0.11,1.96,0.24,2.95,0.25l2.96,0.11l0.74,0.03l0.74-0.02l1.48-0.05
						c1.98-0.01,3.94-0.27,5.91-0.46c0.98-0.12,1.95-0.32,2.93-0.47l1.46-0.25l1.45-0.34c3.88-0.83,7.63-2.18,11.26-3.75l2.69-1.25
						l2.61-1.42c0.88-0.45,1.71-1,2.55-1.52c0.83-0.54,1.69-1.03,2.48-1.63l2.4-1.74c0.78-0.61,1.53-1.25,2.29-1.88
						c0.38-0.32,0.77-0.62,1.13-0.96l1.08-1.01l1.08-1.02l0.54-0.51l0.51-0.54l2.03-2.16c0.65-0.74,1.27-1.52,1.9-2.28
						c0.31-0.38,0.64-0.76,0.93-1.15l0.87-1.2l0.87-1.2l0.43-0.6c0,0,0.06-0.08,0.09-0.13c0,0,0.16-0.25,0.27-0.29l0.42-0.02
						l0.75-0.03l0.75-0.08l2.99-0.34c3.97-0.62,7.89-1.59,11.65-3.02c3.74-1.47,7.34-3.29,10.71-5.49c3.33-2.24,6.43-4.82,9.25-7.68
						c2.78-2.9,5.23-6.1,7.37-9.5c0,0,1.47-2.54,1.52-2.54l0.27,0l0.35-0.01l1.35-0.03l1.35-0.04c0.45-0.01,0.9-0.06,1.35-0.09
						c1.81-0.11,3.6-0.34,5.39-0.6c7.16-1.13,14.1-3.55,20.43-7.08c12.67-7.03,22.68-18.65,27.77-32.23
						c2.66-7.06,3.98-14.61,3.96-22.13c-0.04-7.52-1.45-15.06-4.18-22.09c-2.75-7.02-6.76-13.55-11.84-19.11
						c-2.53-2.79-5.31-5.35-8.3-7.64c-2.99-2.29-6.2-4.29-9.56-6c-1.67-0.87-3.4-1.62-5.15-2.33c-0.43-0.19-0.88-0.34-1.32-0.5
						l-0.33-0.12c0,0-0.08-0.03-0.1-0.07l-0.05-0.17l-0.21-0.68c-0.13-0.46-0.31-0.9-0.46-1.35l-0.48-1.34l-0.53-1.32
						c-0.34-0.89-0.75-1.74-1.14-2.61c-3.23-6.88-7.82-13.12-13.45-18.22c-5.61-5.12-12.27-9.09-19.44-11.63
						c-3.59-1.26-7.31-2.16-11.07-2.7c-0.94-0.15-1.89-0.22-2.83-0.33c-0.95-0.07-1.89-0.14-2.84-0.18l-1.42-0.03
						c-0.48-0.01-0.93-0.03-1.49-0.01c-0.51,0.01-0.97,0.03-1.44,0.05c0,0-0.57,0.03-0.61-0.01l-0.68-0.77
						c-0.3-0.34-0.6-0.68-0.92-1l-1.9-1.94c-1.24-1.32-2.6-2.51-3.93-3.74c-1.31-1.25-2.75-2.35-4.14-3.51
						c-5.64-4.53-11.8-8.43-18.32-11.58c-13.03-6.34-27.55-9.58-42.01-9.55c-7.23,0.02-14.47,0.84-21.53,2.46
						c-3.53,0.82-7.01,1.83-10.43,3.04c-0.43,0.15-0.86,0.29-1.28,0.46c0,0-1.21,0.46-1.17,0.47l-0.6-0.32
						c-0.41-0.21-0.81-0.43-1.22-0.64c-6.58-3.3-13.64-5.68-20.9-6.99c-3.63-0.66-7.3-1.05-10.99-1.18
						c-3.68-0.13-7.36,0.07-11.03,0.41c-3.82,0.44-7.61,1.13-11.34,2.1c-3.71,1.02-7.37,2.25-10.89,3.79
						c-3.51,1.56-6.95,3.32-10.2,5.37c-3.24,2.07-6.37,4.31-9.28,6.82c-0.75,0.6-1.43,1.28-2.15,1.92l-1.06,0.97
						c0,0-0.13,0.12-0.16,0.15l-0.05,0.06l-0.11,0.11l-0.4,0.4l-0.19-0.01l-0.81-0.03c-0.27-0.01-0.58-0.01-0.81,0l-1.48,0.05
						l-1.48,0.05l-0.74,0.03c-0.25,0.02-0.49,0.05-0.74,0.07l-2.96,0.31c-0.98,0.13-1.96,0.33-2.94,0.49
						c-0.49,0.09-0.98,0.16-1.46,0.28l-1.45,0.35c-0.96,0.25-1.94,0.44-2.88,0.77l-2.84,0.91l-2.77,1.09
						c-3.64,1.54-7.13,3.41-10.39,5.57c-3.24,2.19-6.27,4.63-9.09,7.25c-2.8,2.65-5.37,5.47-7.77,8.42
						c-2.38,2.96-4.54,6.05-6.57,9.22c-1.98,3.19-3.82,6.45-5.48,9.79c-3.3,6.68-6.02,13.61-8.12,20.71l-0.4,1.33l-0.37,1.34
						c-0.24,0.89-0.49,1.78-0.72,2.68c-0.43,1.8-0.89,3.59-1.25,5.41c-0.41,1.81-0.71,3.64-1.05,5.46l-0.11,0.71l-0.03,0.17
						c0,0-0.01,0.07,0,0.06l-0.48,0.36c-0.42,0.31-0.84,0.62-1.23,0.96l-1.19,0.99l-1.13,1.04c-0.77,0.68-1.45,1.43-2.17,2.15
						c-0.67,0.76-1.37,1.49-2,2.27c-1.31,1.53-2.45,3.16-3.57,4.81c-1.07,1.67-2.11,3.35-3,5.11c-3.64,6.98-6.03,14.54-6.7,22.6
						c-0.1,1-0.12,2.03-0.15,3.05c0.01,1.03,0,2.06,0.07,3.1c0.13,2.08,0.38,4.2,0.91,6.35c0.11,0.53,0.29,1.07,0.44,1.61
						c0.08,0.27,0.15,0.54,0.24,0.8l0.29,0.81l0.3,0.8c0,0,0.06,0.16,0.08,0.2l0.03,0.06c0.03,0.1,0.1,0.15,0.08,0.29l0,0.38l0,0.36
						l0,0.31c0.01,0.83,0.03,1.65,0.07,2.49c0.07,1.66,0.21,3.34,0.44,5.03c0.21,1.69,0.52,3.39,0.92,5.08c0,0,0.09,0.33,0.29,0.95
						c0.2,0.61,0.5,1.5,0.94,2.6c0.88,2.19,2.34,5.26,4.71,8.36c2.34,3.11,5.67,6.09,9.36,8.18c3.68,2.12,7.59,3.4,11.02,4.21
						c2.89,0.75,5.23,1.16,7.04,1.53c1.82,0.36,3.12,0.66,4,0.98c0.89,0.31,1.43,0.67,1.84,0.88c0.42,0.21,0.71,0.09,0.9-0.29
						c0.07-0.23,0.11-0.57,0.02-0.99c-0.08-0.42-0.27-0.92-0.57-1.4c-0.61-1-1.62-1.93-2.78-2.75c-2.34-1.66-5.34-3.04-8.33-4.63
						c0.37,0.05-1.35-0.74-3.76-2.18c-1.2-0.73-2.57-1.63-3.89-2.72c-1.33-1.08-2.59-2.35-3.69-3.73c-0.54-0.69-1.04-1.42-1.5-2.15
						c-0.45-0.74-0.85-1.49-1.2-2.24c-0.7-1.5-1.2-2.99-1.56-4.31c-0.35-1.32-0.57-2.46-0.69-3.27c-0.07-0.4-0.11-0.72-0.14-0.94
						c-0.03-0.22-0.04-0.34-0.04-0.34c-0.47-2.41-0.71-4.94-0.78-7.53l-0.01-0.97l0-0.24l0-0.12l0.01-0.99l0.03-2.17
						c0.02-0.09-0.05-0.18-0.08-0.26l-0.12-0.26l-0.23-0.52l-0.47-1.03l-0.12-0.26c-0.03-0.07-0.09-0.2-0.09-0.22l-0.07-0.21
						l-0.15-0.42c-0.11-0.27-0.2-0.57-0.28-0.87c-0.08-0.3-0.18-0.59-0.24-0.9c-0.59-2.47-0.73-5.29-0.54-8.14
						c0.09-1.43,0.3-2.88,0.54-4.32c0.28-1.44,0.59-2.89,1.01-4.32c0.8-2.87,1.9-5.67,3.21-8.35c1.31-2.68,2.88-5.21,4.65-7.54
						c1.76-2.34,3.78-4.39,5.94-6.15c0.27-0.23,0.55-0.42,0.83-0.63l0.23-0.17c0.2-0.15,0.4-0.3,0.56-0.41l1.05-0.71l2.09-1.42
						l0.26-0.18c0.08-0.06,0.2-0.11,0.18-0.21l0.08-0.54l0.17-1.09l0.67-4.36l0.43-2.39c0.13-0.79,0.3-1.57,0.47-2.36
						c0.17-0.78,0.32-1.57,0.51-2.35c0.38-1.56,0.73-3.12,1.17-4.66c0.82-3.1,1.8-6.15,2.87-9.17c1.07-3.02,2.28-5.98,3.58-8.89
						c0.33-0.73,0.68-1.44,1.02-2.16c0.34-0.72,0.68-1.44,1.05-2.14l1.09-2.12l1.16-2.08l0.58-1.04l0.61-1.01
						c0.41-0.67,0.81-1.36,1.23-2.02c0.87-1.31,1.71-2.65,2.64-3.91c0.89-1.29,1.86-2.52,2.82-3.75c0.48-0.62,1-1.19,1.49-1.79
						l0.75-0.89c0.25-0.29,0.52-0.57,0.78-0.85c4.16-4.58,8.88-8.53,14.06-11.5l1.96-1.08c0.67-0.33,1.34-0.63,2.01-0.95
						c0.66-0.34,1.36-0.6,2.04-0.86c0.69-0.26,1.36-0.58,2.07-0.77l2.11-0.67c0.71-0.19,1.43-0.35,2.14-0.53
						c0.36-0.08,0.71-0.19,1.07-0.25l1.09-0.19l1.09-0.19c0.36-0.07,0.72-0.13,1.09-0.16l2.2-0.23c0.37-0.05,0.74-0.05,1.11-0.07
						l1.11-0.04l1.11-0.04l0.27-0.01l0.23,0l0.48,0.01l4.75,0.28l0.63,0.03l0.32,0.02c0.06,0.02,0.08-0.03,0.12-0.06l0.1-0.1
						l0.79-0.79l1.58-1.58l1.58-1.58l0.2-0.2l0.1-0.1l0.06-0.05l0.21-0.19l0.43-0.39l1.7-1.56l1.78-1.47
						c9.55-7.75,21.3-12.68,33.5-14c0.77-0.08,1.54-0.12,2.3-0.19l1.15-0.09c0.38-0.02,0.77-0.02,1.16-0.03l2.31-0.06l2.31,0.04
						c3.08,0.11,6.15,0.44,9.17,0.99c6.06,1.1,11.95,3.08,17.47,5.85c0.35,0.17,0.68,0.36,1.03,0.54l0.52,0.28
						c0.43,0.22,0.79,0.43,1.16,0.64l2.21,1.25l1.11,0.63l0.55,0.31c0.2-0.07,0.39-0.16,0.59-0.24c1.58-0.64,3.11-1.29,4.73-1.92
						l1.16-0.44c0.37-0.14,0.74-0.26,1.11-0.4c2.96-1.05,5.99-1.93,9.05-2.64c6.13-1.4,12.42-2.12,18.72-2.13
						c12.6-0.02,25.17,2.78,36.49,8.29c5.66,2.74,11.01,6.13,15.92,10.07c1.2,1.01,2.46,1.96,3.6,3.06c1.16,1.07,2.35,2.1,3.42,3.25
						l1.65,1.68c0.28,0.27,0.54,0.57,0.8,0.87l1,1.13l3.33,3.78l0.21,0.24l0.1,0.12c0.03,0.05,0.07,0.07,0.13,0.05l0.64-0.05
						l1.27-0.1l2.54-0.18l1.97-0.11l1.1-0.04c0.29-0.01,0.68,0.01,1.05,0.01l1.11,0.02c0.74,0.04,1.48,0.09,2.22,0.14
						c0.74,0.09,1.48,0.14,2.21,0.26c2.93,0.42,5.82,1.12,8.62,2.1c5.58,1.98,10.77,5.07,15.15,9.07c2.2,1.99,4.21,4.2,5.96,6.59
						c1.75,2.39,3.3,4.94,4.55,7.63c0.3,0.68,0.63,1.34,0.89,2.04l0.42,1.03l0.37,1.05c0.12,0.35,0.26,0.69,0.36,1.05l0.48,1.54
						l1.29,4.93c-0.02,0.54,0.55,0.5,0.92,0.67l1.21,0.39l2.43,0.78c0.41,0.13,0.81,0.25,1.22,0.41l0.77,0.28
						c0.35,0.13,0.71,0.25,1.05,0.4c1.39,0.56,2.76,1.16,4.09,1.85c2.67,1.36,5.23,2.95,7.61,4.78c2.38,1.83,4.59,3.87,6.61,6.09
						c4.05,4.43,7.23,9.63,9.42,15.2c2.16,5.59,3.29,11.56,3.32,17.57c0.01,6.01-1.04,12-3.15,17.61
						c-4.04,10.78-12.03,20.06-22.11,25.65c-5.03,2.8-10.54,4.73-16.23,5.62c-1.43,0.2-2.85,0.39-4.29,0.48
						c-0.36,0.02-0.72,0.06-1.08,0.08l-1.08,0.03l-1.08,0.03l-0.26,0.01l-0.34,0c-0.33,0-0.79-0.02-1.18-0.04
						c-1.63-0.09-3.28-0.24-4.91-0.35l-1.23-0.09l-0.31-0.02c-0.05,0.08-0.09,0.18-0.14,0.27l-0.27,0.55l-1.07,2.2l-1.07,2.2
						l-0.54,1.1l-0.13,0.28l-0.07,0.14l-0.03,0.07l-0.13,0.21l-0.13,0.23l-1.06,1.84c-1.65,2.62-3.54,5.09-5.68,7.33
						c-2.18,2.2-4.57,4.19-7.13,5.92c-2.6,1.69-5.37,3.09-8.24,4.22c-2.89,1.1-5.91,1.83-8.96,2.32l-2.31,0.26l-0.58,0.07
						l-0.58,0.02l-2.18,0.08c-0.41,0.03-0.87-0.01-1.34-0.03l-1.4-0.08l-1.38-0.08c-0.11,0-0.24-0.03-0.33,0l-0.17,0.28l-0.34,0.53
						l-2.69,4.26l-0.34,0.53l-0.17,0.27l-0.08,0.13l-0.05,0.06l-0.35,0.48l-0.69,0.96l-0.69,0.96c-0.23,0.32-0.5,0.61-0.75,0.92
						c-0.51,0.6-0.99,1.23-1.52,1.82l-1.62,1.73l-0.4,0.43l-0.43,0.4l-0.86,0.81l-0.86,0.81c-0.28,0.28-0.6,0.51-0.9,0.76
						c-0.61,0.5-1.21,1.01-1.83,1.5l-1.92,1.39c-0.62,0.49-1.32,0.87-1.98,1.3c-0.67,0.42-1.32,0.86-2.03,1.22l-2.08,1.13
						l-2.15,0.99c-2.89,1.24-5.87,2.33-8.95,2.98l-1.15,0.28l-1.17,0.2c-0.78,0.12-1.55,0.29-2.33,0.38
						c-1.57,0.14-3.13,0.36-4.72,0.37l-1.18,0.04l-0.59,0.02l-0.59-0.02l-2.37-0.09c-0.79,0-1.57-0.12-2.36-0.2
						c-0.78-0.09-1.57-0.17-2.35-0.27l-2.32-0.45l-1.16-0.22l-1.14-0.31l-2.28-0.61c-0.75-0.24-1.49-0.52-2.23-0.77
						c-5.96-2.07-11.42-5.45-16.17-9.59c-0.31-0.24-0.59-0.52-0.87-0.8l-0.85-0.83l-0.85-0.82c-0.14-0.14-0.29-0.27-0.42-0.41
						l-0.39-0.44l-1.57-1.77l-0.39-0.44l-0.36-0.47l-0.72-0.94l-0.72-0.94l-0.36-0.47l-0.32-0.49l-1.3-1.97l-0.33-0.49l-0.29-0.52
						l-0.58-1.03l-0.58-1.03l-0.15-0.26l-0.21-0.38l-0.14-0.3l-0.57-1.21l-2.78-5.92l-0.17-0.37c-0.03-0.06-0.05-0.14-0.09-0.17
						l-0.2,0.04l-0.81,0.17l-1.62,0.35l-3.25,0.69c-0.54,0.11-1.08,0.2-1.62,0.3c-0.52,0.09-0.99,0.15-1.48,0.23l-0.78,0.11
						L190.2,253c-0.96,0.11-1.93,0.19-2.89,0.25c-0.78,0.04-1.55,0.07-2.33,0.08l-0.57,0l-0.5-0.02c-0.33-0.01-0.66-0.01-1.03-0.05
						c-1.43-0.09-3.01-0.33-4.59-0.6C175.05,252.11,171.91,250.46,168.57,250.73z"/>
				</g>
				<path class="st0" d="M35.63,261.37"/>
				<g>
					<path class="st0" d="M215.23,216.57c-0.42-0.06-0.88,0.06-1.37,0.39c-0.97,0.65-1.37,1.87-1.63,3.02
						c-1.12,4.93-0.64,9.8,0.23,14.72c0.6,3.39,1.57,7.37,2.95,11.1c1.37,3.73,3.16,7.19,4.8,9.58c0.8,1.21,1.55,2.16,2.08,2.81
						c0.26,0.33,0.48,0.58,0.63,0.74c0.15,0.17,0.23,0.26,0.23,0.26s0.08,0.09,0.23,0.26c0.15,0.17,0.36,0.42,0.67,0.72
						c0.59,0.61,1.45,1.48,2.61,2.43c2.27,1.93,5.83,4.13,9.88,5.39c2.02,0.64,4.13,1.06,6.18,1.31c2.05,0.25,4.02,0.26,5.82,0.22
						c5.63-0.12,11.51-1.29,16.12-4.68c2.67-1.96,1.06-3.74-1.42-4.4c-5.05-1.35-9.93,1.01-14.97,1.09
						c-1.46,0.02-3.05,0.01-4.64-0.18c-1.59-0.19-3.19-0.51-4.68-0.98c-3-0.93-5.54-2.5-7.23-3.91c-0.86-0.69-1.5-1.34-1.95-1.8
						c-0.23-0.22-0.39-0.41-0.51-0.54c-0.11-0.13-0.17-0.19-0.17-0.19s-0.06-0.07-0.17-0.2c-0.12-0.12-0.28-0.32-0.48-0.57
						c-0.41-0.5-0.98-1.23-1.61-2.19c-1.29-1.89-2.76-4.72-3.92-7.91c-1.17-3.19-2.04-6.72-2.58-9.76c-0.55-3.04-0.8-5.59-0.93-6.87
						C219.22,224.64,217.98,216.95,215.23,216.57z"/>
				</g>
				<g>
					<path class="st0" d="M42.13,225.7c0.35,0.74,1.34,0.99,2.13,0.75c0.79-0.24,1.41-0.85,1.97-1.46
						c4.92-5.29,9.45-13.1,9.47-20.52c0.01-2.64-0.64-4.77-1.28-6.32c-0.35-0.77-0.64-1.45-0.99-1.97
						c-0.33-0.53-0.58-0.99-0.84-1.32c-2.17-2.83-5.29-4.9-8.45-6.45c-0.77-0.38-2.49-1.56-3.34-0.84c-0.19,0.16-0.27,0.43-0.2,0.66
						c0.25,0.85,1.9,1.76,2.53,2.37c1.16,1.12,2.36,2.21,3.48,3.36c0.45,0.47,0.89,0.97,1.32,1.46c0.28,0.32,1.43,1.33,1.43,1.74
						c0.2,0.27,0.38,0.63,0.64,1.04c0.28,0.4,0.49,0.92,0.76,1.51c3.91,8.52-3.11,17.04-7.87,23.46
						C42.32,223.9,41.75,224.84,42.13,225.7z"/>
				</g>
				<g>
					<path class="st0" d="M189.35,109.5c0.05-0.02,0.1-0.04,0.16-0.06c0.45-0.22,0.71-0.71,0.76-1.2c0.06-0.49-0.06-0.99-0.19-1.46
						c-1.09-3.89-3.61-7.25-5.91-10.51c-0.31-0.44-0.72-1.01-1.35-1.82c-0.63-0.81-1.47-1.86-2.7-3.21
						c-1.4-1.57-3.99-4.05-6.57-5.76c-1.28-0.87-2.52-1.56-3.45-2.02c-0.93-0.45-1.53-0.7-1.53-0.7s-0.13-0.05-0.35-0.14
						c-0.23-0.09-0.56-0.23-0.98-0.37c-0.84-0.31-2.03-0.65-3.4-0.93c-2.75-0.56-6.21-0.5-8.56-0.01c-2.49,0.46-4.41,1.17-5.87,1.79
						c-0.74,0.3-1.35,0.61-1.88,0.87c-0.53,0.25-0.95,0.5-1.3,0.69c-2.45,1.33-4.82,3.04-6.74,5.13c-0.97,1.06-1.85,2.22-2.55,3.48
						c-0.54,0.98-0.42,2.2,0.96,1.54c3.71-1.77,6.64-4.77,10.24-6.68c0.31-0.17,0.69-0.39,1.16-0.61c0.47-0.23,1.01-0.5,1.66-0.76
						c1.28-0.54,2.94-1.15,5.03-1.53c1.99-0.41,4.82-0.46,7.09-0.01c1.13,0.23,2.13,0.51,2.83,0.76c0.36,0.11,0.63,0.24,0.83,0.31
						c0.19,0.08,0.3,0.12,0.3,0.12s2.04,0.81,4.26,2.35c2.24,1.5,4.59,3.73,5.88,5.16c2.48,2.74,4.63,5.76,6.74,8.79
						c1.06,1.53,2.23,3.04,3.22,4.62C187.6,108.1,188.19,109.88,189.35,109.5z"/>
				</g>
				<g>
					<path class="st0" d="M256.18,57.51c-3.58,0.5-5.8,1.33-7.54,4.04c-0.46,0.74-1.37,2.24-2.37,4.13c-1,1.89-2.09,4.17-3.01,6.43
						c-0.92,2.25-1.68,4.46-2.15,6.13c-0.25,0.83-0.42,1.52-0.54,2.01c-0.12,0.48-0.19,0.76-0.19,0.76s-0.02,0.07-0.05,0.2
						c-0.04,0.13-0.08,0.32-0.13,0.56c-0.1,0.49-0.26,1.19-0.43,2.05c-0.3,1.73-0.65,4.1-0.72,6.64c-0.1,3.55,0.08,7.22,1.21,10.62
						c0.77,2.31,2.2,4.93,4.25,6.36c0.65,0.45,1.49,0.71,2.25,0.48c0.81-0.24,1.4-0.98,1.67-1.79c1.06-3.1-0.52-6.48-1.02-9.53
						c-0.29-1.75-0.43-3.86-0.39-5.9c0.05-2.05,0.33-4.01,0.57-5.46c0.15-0.72,0.26-1.32,0.35-1.73c0.04-0.21,0.08-0.37,0.11-0.48
						c0.03-0.11,0.04-0.17,0.04-0.17s0.06-0.23,0.17-0.64c0.1-0.41,0.25-1.01,0.48-1.72c0.41-1.44,1.09-3.36,1.9-5.35
						c0.82-1.99,1.79-4.03,2.68-5.73c0.89-1.7,1.7-3.06,2.09-3.74c0.73-1.26,1.05-2.4,1.11-3.68
						C256.6,60.71,256.39,59.3,256.18,57.51z"/>
				</g>
				<g>
					<path class="st0" d="M134.58,295.15c-1.14-0.8-2.79-0.59-3.98,0.18c-2.4,1.54-4.08,4.74-5.38,7.19c-1,1.89-2.09,4.17-3.01,6.43
						c-0.92,2.25-1.68,4.46-2.15,6.13c-0.25,0.83-0.42,1.52-0.54,2.01c-0.12,0.48-0.19,0.76-0.19,0.76s-0.02,0.07-0.05,0.2
						c-0.04,0.13-0.08,0.32-0.13,0.56c-0.1,0.49-0.26,1.19-0.43,2.05c-0.3,1.73-0.65,4.1-0.72,6.64c-0.07,2.54,0.11,5.22,0.49,7.47
						c0.09,0.56,0.22,1.1,0.33,1.6c0.12,0.5,0.19,0.97,0.33,1.39c0.67,2.23,2.37,6.49,5.06,6.88c4.11,0.59,3.94-4.79,3.08-7.37
						c-0.09-0.35-0.24-0.87-0.42-1.52c-0.1-0.32-0.15-0.69-0.24-1.07c-0.07-0.39-0.18-0.8-0.25-1.24c-0.29-1.75-0.43-3.86-0.39-5.9
						c0.05-2.05,0.33-4.01,0.57-5.46c0.15-0.72,0.26-1.32,0.35-1.73c0.04-0.21,0.08-0.37,0.11-0.48c0.03-0.11,0.04-0.17,0.04-0.17
						s0.06-0.23,0.17-0.64c0.1-0.41,0.25-1.01,0.48-1.72c0.41-1.44,1.09-3.36,1.9-5.35c0.82-1.99,1.79-4.03,2.69-5.73
						c1.19-2.25,2.9-4.99,3.43-7.49c0.26-1.23,0-2.65-0.96-3.46C134.7,295.24,134.64,295.2,134.58,295.15z"/>
				</g>
				<g>
					<path class="st0" d="M321.1,255.45c0.44-3.59,0.22-5.95-1.94-8.33c-0.6-0.64-1.81-1.91-3.37-3.36
						c-1.57-1.46-3.49-3.1-5.43-4.57c-1.94-1.47-3.87-2.78-5.37-3.66c-0.73-0.46-1.36-0.81-1.8-1.05c-0.44-0.24-0.68-0.38-0.68-0.38
						s-0.06-0.03-0.18-0.1c-0.11-0.07-0.29-0.16-0.51-0.27c-0.45-0.23-1.08-0.56-1.87-0.94c-1.6-0.74-3.79-1.69-6.22-2.42
						c-2.43-0.73-5.07-1.25-7.34-1.47c-0.57-0.06-1.12-0.07-1.63-0.1c-0.51-0.02-0.99-0.07-1.43-0.05
						c-0.87,0.03-1.58,0.05-2.05,0.06c-1.49,0.05-3.13,0.51-4.41,1.29c-0.79,0.49-1.48,1.22-1.72,2.12
						c-0.29,1.12,0.18,2.35,1.01,3.15c0.83,0.8,1.98,1.22,3.12,1.37c1.3,0.17,2.67,0.06,3.98-0.01c0.34-0.02,0.71,0.03,1.1,0.05
						c0.4,0.03,0.82,0.03,1.26,0.08c1.76,0.18,3.84,0.58,5.8,1.16c1.96,0.58,3.79,1.36,5.13,1.97c0.66,0.33,1.21,0.6,1.58,0.79
						c0.19,0.09,0.34,0.17,0.44,0.23c0.1,0.05,0.15,0.08,0.15,0.08s0.21,0.12,0.58,0.33c0.37,0.21,0.91,0.5,1.54,0.91
						c1.28,0.77,2.96,1.92,4.67,3.22c1.71,1.3,3.43,2.77,4.84,4.08c1.41,1.3,2.51,2.44,3.07,2.99c1.02,1.03,2.05,1.63,3.27,2.03
						C317.9,255.03,319.32,255.19,321.1,255.45z"/>
				</g>
				<g>
					<path class="st0" d="M380.02,195.91c0.76-0.06,1.13-0.96,1.3-1.7c1.4-6.12,1.35-12.3,0.32-18.46
						c-1.57-9.42-5.79-21.69-15.41-25.61c-0.45-0.18-0.98-0.34-1.4-0.09c-0.24,0.15-0.4,0.43-0.39,0.72
						c0.02,0.77,1.14,1.37,1.62,1.85c7.25,7.43,11.34,18.09,12.44,28.32c0.42,3.92,0.27,7.88,0.32,11.81
						C378.82,193.66,378.48,196.03,380.02,195.91z"/>
				</g>
				<g>
					<path class="st0" d="M282.88,122.35c0.22,0.1,0.49,0.03,0.82-0.27c0.34-0.32,0.43-0.81,0.5-1.27
						c0.79-5.12,1.21-10.33,0.75-15.5c-0.23-2.52-0.75-5.01-1.41-7.45c-0.66-2.45-1.3-5.08-2.27-7.43
						c-1.73-4.15-4.36-8.14-7.77-11.1c-1.51-1.31-2.89-2.71-4.61-3.77c-0.31-0.19-0.63-0.37-0.98-0.42
						c-0.36-0.05-0.76,0.05-0.97,0.34c-0.19,0.26-0.19,0.63-0.07,0.93s0.32,0.56,0.52,0.81c1.08,1.34,2.15,2.69,3.23,4.03
						c3.32,4.14,5.96,8.82,7.8,13.8c1.46,3.94,2.25,7.7,2.59,11.86c0.13,1.55,0.25,3.11,0.38,4.66c0.17,2.05,0.34,4.09,0.5,6.14
						C281.97,118.73,281.68,121.81,282.88,122.35z"/>
				</g>
				<g>
					<path class="st0" d="M245.15,251.66c0.57-0.04,1.15-0.39,1.52-0.85c0.74-0.92,0.8-2.34,0.85-3.47
						c0.08-1.88-0.49-3.69-0.49-5.54c-0.18-1.35-0.42-2.64-0.66-3.59c-0.11-0.47-0.22-0.86-0.29-1.13
						c-0.08-0.27-0.12-0.42-0.12-0.42s-0.04-0.15-0.12-0.42c-0.09-0.27-0.21-0.65-0.36-1.12c-0.34-0.92-0.82-2.17-1.5-3.42
						c-1.53-2.85-4.6-8.1-7.32-5.9c-2.14,2.94,2.67,5.14,3.9,7.76c0.36,0.77,1.17,2.04,1.17,2.89c0.13,0.4,0.24,0.73,0.32,0.96
						c0.08,0.23,0.11,0.36,0.11,0.36s0.04,0.13,0.1,0.37c0.07,0.23,0.16,0.57,0.25,0.99c0.21,0.83,0.41,1.97,0.57,3.18
						c0.23,1.75,0.32,3.51,0.32,5.27c0,1.08-0.19,2.62,0.53,3.53C244.26,251.55,244.7,251.69,245.15,251.66z"/>
				</g>
				<g>
					<path class="st0" d="M117.49,132.4c0.81,0.17,1.58-0.48,2.1-1.13c2.54-3.2,3.51-7.24,4.25-11.16
						c0.99-5.25,1.66-10.85,1.64-16.18c-0.01-1.6-0.22-3.21-0.22-4.81c-0.04-0.43-0.1-0.85-0.17-1.24
						c-0.06-0.39-0.12-0.75-0.18-1.09c-0.26-1.56-0.85-3.17-1.76-4.47c-0.47-0.66-1.05-1.31-1.81-1.64
						c-1.73-0.76-1.22,1.46-1.07,2.41c0.46,2.91,0.91,5.83,1.1,8.77c0.18,2.89-0.05,5.66-0.43,8.53c-0.78,5.89-2.1,11.71-3.92,17.37
						c-0.11,0.34-0.22,0.68-0.33,1.02c-0.22,0.66-0.45,1.33-0.4,2.02c0.05,0.69,0.46,1.41,1.13,1.59
						C117.43,132.38,117.46,132.39,117.49,132.4z"/>
				</g>
				<g>
					<path class="st0" d="M150.67,53c-0.9,1.86-1.46,3.55-1.59,5.25c-0.13,1.7,0.15,3.43,1.05,5.37c0.24,0.53,0.62,1.31,1.12,2.25
						c0.5,0.93,1.16,2.07,1.85,3.21c1.27,2.12,2.74,4.63,3.86,7.13c0.61,1.23,1.08,2.48,1.55,3.61c0.23,0.57,0.4,1.13,0.58,1.65
						c0.17,0.52,0.37,1.01,0.48,1.46c0.25,0.91,0.47,1.65,0.6,2.17c0.11,0.52,0.17,0.82,0.17,0.82s0.06,0.29,0.17,0.82
						c0.13,0.52,0.21,1.28,0.35,2.19c0.22,1.83,0.37,4.31,0.08,6.84c-0.27,2.53-0.96,5.09-1.85,7.13c-0.88,2.05-1.89,3.59-2.4,4.35
						c-0.97,1.47-2.05,2.91-2.69,4.56c-0.52,1.35-0.99,4.31,0.95,4.84c0.44,0.12,0.9,0.07,1.35-0.01c2.8-0.51,5.27-2.56,6.89-4.84
						c0.7-0.98,2.06-3.02,3.24-5.75c1.2-2.72,2.11-6.14,2.45-9.44c0.37-3.31,0.15-6.44-0.13-8.71c-0.18-1.13-0.28-2.06-0.44-2.69
						c-0.14-0.63-0.21-0.99-0.21-0.99s-0.08-0.36-0.21-0.99c-0.15-0.63-0.41-1.51-0.7-2.6c-0.14-0.55-0.36-1.11-0.56-1.72
						c-0.21-0.61-0.41-1.27-0.67-1.93c-0.53-1.31-1.07-2.76-1.76-4.15c-1.28-2.85-2.9-5.64-4.31-7.97c-1.3-2.09-2.18-3.79-2.61-4.68
						c-0.8-1.6-1.63-2.75-2.7-3.82C153.53,55.33,152.25,54.35,150.67,53z"/>
				</g>
			</g>
		</g>
		<g>
			<g>
				<path class="st0" d="M210.6,356.27v-35.59h10.89c5.43,0,9.8,1.64,13.1,4.92c3.3,3.28,4.94,7.57,4.94,12.87
					c0,5.34-1.65,9.63-4.94,12.9c-3.3,3.26-7.66,4.89-13.1,4.89H210.6z M215.17,325.05v26.84h6.31c4.14,0,7.41-1.19,9.79-3.55
					c2.39-2.37,3.58-5.66,3.58-9.87c0-4.18-1.19-7.46-3.58-9.84c-2.39-2.39-5.65-3.58-9.79-3.58H215.17z"/>
				<path class="st0" d="M246.98,323.51c0,0.9-0.32,1.66-0.95,2.28c-0.63,0.63-1.39,0.95-2.28,0.95s-1.66-0.32-2.29-0.95
					c-0.63-0.63-0.94-1.39-0.94-2.28c0-0.9,0.31-1.66,0.94-2.28c0.63-0.63,1.39-0.95,2.29-0.95s1.65,0.32,2.28,0.95
					C246.67,321.86,246.98,322.62,246.98,323.51z M246.04,331.91v24.36h-4.57v-24.36H246.04z"/>
				<path class="st0" d="M259.46,367.8c-1.36,0-2.63-0.17-3.83-0.52c-1.19-0.35-2.28-0.84-3.26-1.47c-0.98-0.63-1.82-1.37-2.51-2.24
					c-0.7-0.86-1.23-1.82-1.59-2.88l4.32-1.79c0.5,1.42,1.36,2.57,2.58,3.43c1.23,0.86,2.65,1.29,4.27,1.29
					c2.49,0,4.42-0.74,5.82-2.24c1.39-1.49,2.09-3.55,2.09-6.16v-2.34h-0.2c-0.86,1.29-2.03,2.31-3.5,3.05
					c-1.47,0.75-3.07,1.12-4.8,1.12c-3.18,0-5.92-1.24-8.2-3.73c-2.25-2.55-3.38-5.64-3.38-9.25s1.13-6.68,3.38-9.19
					c2.28-2.52,5.02-3.78,8.2-3.78c1.72,0,3.32,0.37,4.8,1.12c1.47,0.74,2.64,1.76,3.5,3.06h0.2v-3.38h4.37v23.31
					c0,3.91-1.11,6.97-3.33,9.19C266.15,366.67,263.17,367.8,259.46,367.8z M259.61,352.89c2.25,0,4.09-0.81,5.52-2.44
					c1.49-1.62,2.24-3.74,2.24-6.36c0-2.55-0.75-4.65-2.24-6.31c-1.46-1.65-3.3-2.48-5.52-2.48c-2.19,0-4.03,0.83-5.52,2.48
					c-1.49,1.66-2.24,3.76-2.24,6.31c0,2.58,0.75,4.69,2.24,6.31C255.58,352.06,257.42,352.89,259.61,352.89z"/>
				<path class="st0" d="M280.13,323.51c0,0.9-0.32,1.66-0.95,2.28c-0.63,0.63-1.39,0.95-2.28,0.95s-1.66-0.32-2.29-0.95
					c-0.63-0.63-0.94-1.39-0.94-2.28c0-0.9,0.31-1.66,0.94-2.28c0.63-0.63,1.39-0.95,2.29-0.95s1.65,0.32,2.28,0.95
					C279.82,321.86,280.13,322.62,280.13,323.51z M279.19,331.91v24.36h-4.57v-24.36H279.19z"/>
				<path class="st0" d="M291.47,356.67c-1.99,0-3.64-0.61-4.94-1.84c-1.31-1.23-1.98-2.93-2.01-5.12v-13.62h-4.28v-4.18h4.28v-7.45
					h4.57v7.45h5.96v4.18h-5.96v12.13c0,1.62,0.32,2.73,0.94,3.31c0.63,0.58,1.34,0.87,2.14,0.87c0.37,0,0.72-0.04,1.07-0.13
					c0.35-0.08,0.67-0.19,0.97-0.32l1.44,4.08C294.45,356.45,293.06,356.67,291.47,356.67z"/>
				<path class="st0" d="M305.09,331.12c3.38,0,6.04,0.9,8,2.71c1.95,1.81,2.93,4.28,2.93,7.43v15.01h-4.37v-3.38h-0.2
					c-1.89,2.78-4.41,4.17-7.55,4.17c-2.69,0-4.93-0.79-6.74-2.39c-1.81-1.59-2.71-3.58-2.71-5.96c0-2.52,0.95-4.52,2.86-6.01
					c1.91-1.49,4.45-2.24,7.63-2.24c2.72,0,4.95,0.5,6.71,1.49v-1.04c0-1.59-0.63-2.94-1.89-4.05c-1.26-1.11-2.73-1.66-4.42-1.66
					c-2.55,0-4.57,1.08-6.06,3.23l-4.02-2.53C297.46,332.71,300.74,331.12,305.09,331.12z M299.17,348.81c0,1.19,0.5,2.19,1.52,2.98
					c1.01,0.79,2.19,1.19,3.55,1.19c1.92,0,3.64-0.71,5.15-2.14c1.51-1.42,2.26-3.1,2.26-5.02c-1.42-1.13-3.41-1.69-5.96-1.69
					c-1.86,0-3.41,0.45-4.65,1.34C299.79,346.38,299.17,347.49,299.17,348.81z"/>
				<path class="st0" d="M322.68,320.68v35.59h-4.57v-35.59H322.68z"/>
			</g>
		</g>
	</g>
</g>
</svg>
